<?xml version="1.0" encoding="UTF-8" standalone="no"?><!DOCTYPE svg PUBLIC "-//W3C//DTD SVG 1.1//EN" "http://www.w3.org/Graphics/SVG/1.1/DTD/svg11.dtd"><svg width="100%" height="100%" viewBox="0 0 85 77" version="1.1" xmlns="http://www.w3.org/2000/svg" xmlns:xlink="http://www.w3.org/1999/xlink" xml:space="preserve" xmlns:serif="http://www.serif.com/" style="fill-rule:evenodd;clip-rule:evenodd;stroke-linejoin:round;stroke-miterlimit:2;"><path d="M55.629,53.497c0.01,0.024 0.02,0.048 0.03,0.073c2.824,6.758 3.091,12.982 0.098,17.216c-2.765,3.911 -9.008,7.016 -21.343,5.988c-0.926,-0.077 -3.329,-0.947 -5.487,-3.397c-3.13,-3.555 -6.473,-10.508 -4.356,-16.325c1.394,-3.83 5.029,-7.81 13.651,-9.534c0.839,-0.168 1.661,-0.338 2.467,-0.512c-1.358,-2.189 -2.731,-4.307 -3.957,-6.257c-2.557,-4.068 -4.487,-7.588 -5.047,-9.83c-0.676,-2.704 0.97,-5.448 3.674,-6.124c2.704,-0.676 5.448,0.97 6.124,3.674c0.4,1.599 1.976,4.003 3.8,6.905c1.742,2.771 3.742,5.864 5.62,9.034c6.334,-1.905 11.26,-4.038 15.012,-6.336c4.879,-2.988 7.552,-6.084 8.433,-9.314c1.256,-4.603 -1.23,-9.011 -4.2,-12.403c-2.007,-2.293 -4.335,-4.143 -6.375,-5.272c-0.818,-0.452 -1.506,-0.845 -2.051,-0.874c-11.705,-0.616 -20.55,1.442 -27.325,5.224c-16.141,9.01 -20.49,27.301 -24.559,39.51c-0.881,2.644 -3.744,4.075 -6.388,3.194c-2.644,-0.881 -4.075,-3.744 -3.194,-6.388c4.704,-14.111 10.563,-34.722 29.218,-45.135c8.137,-4.542 18.719,-7.231 32.779,-6.491c3.495,0.184 10.34,3.692 15.494,9.578c5.131,5.86 8.515,13.763 6.345,21.715c-1.149,4.213 -3.851,8.55 -9.003,12.578c-4.348,3.399 -10.636,6.671 -19.463,9.505Zm-9.839,2.71c-1.784,0.42 -3.645,0.826 -5.586,1.214c-3.196,0.639 -5.15,1.414 -5.989,2.772c-0.666,1.077 -0.158,2.322 0.315,3.409c0.504,1.158 1.555,2.498 2.152,3.209c3.396,0.204 6.062,0.053 8.111,-0.462c1.275,-0.321 2.216,-0.684 2.718,-1.394c0.418,-0.591 0.409,-1.348 0.341,-2.165c-0.135,-1.636 -0.721,-3.435 -1.511,-5.325c-0.174,-0.416 -0.358,-0.836 -0.551,-1.257Z"/></svg>