<?xml version="1.0" encoding="UTF-8" standalone="no"?><!DOCTYPE svg PUBLIC "-//W3C//DTD SVG 1.1//EN" "http://www.w3.org/Graphics/SVG/1.1/DTD/svg11.dtd"><svg width="100%" height="100%" viewBox="0 0 69 65" version="1.1" xmlns="http://www.w3.org/2000/svg" xmlns:xlink="http://www.w3.org/1999/xlink" xml:space="preserve" xmlns:serif="http://www.serif.com/" style="fill-rule:evenodd;clip-rule:evenodd;stroke-linejoin:round;stroke-miterlimit:2;"><path d="M61.853,17.073c2.263,1.336 3.139,4.219 1.946,6.605c-0.398,0.795 -0.977,1.44 -1.663,1.908c1.833,0.931 2.724,1.206 3.153,1.506l1.131,1.016l0.698,1.012l0.693,2.309c0.676,6.764 -0.286,10.888 -1.976,13.454c-1.981,3.008 -5.041,4.606 -9.48,5.075c-3.719,0.393 -8.817,-0.089 -15.191,0.091c-1.787,2.222 -7.048,8.744 -9.139,11.121c-0.985,1.119 -1.834,1.827 -2.309,2.125l-2.132,0.792c-12.25,1.75 -17.601,-1.812 -19.894,-5.417c-1.67,-2.626 -2.043,-5.759 -1.647,-8.699c0.464,-3.444 1.966,-6.503 2.294,-7.159c1.3,-2.6 1.883,-4.716 1.852,-6.547c-0.038,-2.287 -1.107,-3.987 -2.285,-5.56c-1.173,-1.567 -2.497,-3.018 -3.661,-4.519c-1.904,-2.455 -3.404,-5.051 -3.982,-8.07c-0.596,-3.115 -0.295,-6.743 1.943,-11.219c1.9,-3.801 3.903,-5.508 5.658,-6.267l2.61,-0.618c1.067,-0.061 2.19,0.095 3.389,0.51c2.134,0.739 4.883,2.867 9.134,4.993c6.206,3.103 9.227,1.461 12.836,0.918c3.761,-0.566 7.957,-0.596 14.321,2.586c6.441,3.221 11.275,7.658 11.701,8.054Zm-19.823,-0.408c-3.834,-0.982 -6.269,0.131 -9.099,0.547c-3.767,0.553 -8.01,0.558 -14.452,-2.663c-2.582,-1.291 -5.37,-2.931 -6.857,-3.828c-0.135,0.226 -0.269,0.465 -0.383,0.693c-2.72,5.441 0.547,8.079 3.098,11.159c2.892,3.491 5.48,7.284 5.895,12.389c0.274,3.374 -0.376,7.397 -2.861,12.368c-0.157,0.314 -0.8,1.584 -1.162,3.146c-0.204,0.882 -0.527,1.941 0.003,2.773c0.418,0.657 1.345,0.868 2.708,1.066c1.501,0.218 3.347,0.217 5.609,-0.023c1.773,-2.249 7.16,-9.043 9.432,-11.464c1.123,-1.198 2.127,-1.914 2.72,-2.211l2.213,-0.589c5.165,-0.246 9.558,0.002 13.129,0.011c1.374,0.003 2.601,-0.026 3.676,-0.173c0.673,-0.092 1.271,-0.096 1.654,-0.476c0.414,-0.411 0.439,-1.099 0.527,-2.011c0.077,-0.789 0.09,-1.678 0.048,-2.682c-2.575,-1.284 -7.849,-4.229 -15.692,-10.111c-2.23,-1.672 -2.682,-4.84 -1.01,-7.07c0.24,-0.32 0.51,-0.603 0.804,-0.848Z"/></svg>