<?xml version="1.0" encoding="UTF-8" standalone="no"?><!DOCTYPE svg PUBLIC "-//W3C//DTD SVG 1.1//EN" "http://www.w3.org/Graphics/SVG/1.1/DTD/svg11.dtd"><svg width="100%" height="100%" viewBox="0 0 98 52" version="1.1" xmlns="http://www.w3.org/2000/svg" xmlns:xlink="http://www.w3.org/1999/xlink" xml:space="preserve" xmlns:serif="http://www.serif.com/" style="fill-rule:evenodd;clip-rule:evenodd;stroke-linejoin:round;stroke-miterlimit:2;"><path d="M61.432,9.251c0.573,-2.225 2.588,-3.796 4.908,-3.788c2.41,0.009 4.477,1.718 4.939,4.083l-0.012,1.968l0.005,0c-0.001,0.007 -0.003,0.015 -0.005,0.025l-0.001,0.144c-0.238,1.599 -1.32,8.867 5.791,13.608c3.731,2.487 5.031,2.518 8.206,2.489c1.928,-0.018 4.343,-0.047 7.725,0.178c2.781,0.185 4.888,2.594 4.703,5.375c-0.185,2.781 -2.594,4.888 -5.375,4.703c-12.19,-0.813 -12.695,1.103 -20.861,-4.341c-3.506,-2.337 -5.874,-5.024 -7.458,-7.735c-1.001,1.398 -2.103,2.758 -3.304,4.007c-5.263,5.475 -12.205,8.816 -20.446,6.069c-5.877,-1.959 -9.651,-6.286 -11.955,-11.334c-3.417,5.907 -7.774,11.221 -11.602,15.495c-3.125,3.488 -6.62,7.476 -6.975,7.881c-1.006,2.423 -3.732,3.693 -6.259,2.85c-2.644,-0.881 -4.075,-3.744 -3.194,-6.388c0.476,-1.429 2.717,-4.322 6.085,-7.985c5.739,-6.243 15.181,-16.198 17.406,-27.324c0.841,-4.206 1.355,-6.097 1.512,-6.41l0.94,-1.313l1.32,-0.963l1.746,-0.517l2.105,0.219l1.747,0.986l1.104,1.35l0.585,1.624c0.046,0.246 0.106,0.771 0.125,1.534c0.047,1.807 0.022,6.644 1.364,11.474c1.058,3.806 2.899,7.823 7.141,9.238c4.081,1.36 7.364,-0.775 9.97,-3.486c4.658,-4.846 7.404,-11.87 7.993,-13.626l0.03,-0.091Z"/></svg>