<?xml version="1.0" encoding="UTF-8" standalone="no"?><!DOCTYPE svg PUBLIC "-//W3C//DTD SVG 1.1//EN" "http://www.w3.org/Graphics/SVG/1.1/DTD/svg11.dtd"><svg width="100%" height="100%" viewBox="0 0 55 66" version="1.1" xmlns="http://www.w3.org/2000/svg" xmlns:xlink="http://www.w3.org/1999/xlink" xml:space="preserve" xmlns:serif="http://www.serif.com/" style="fill-rule:evenodd;clip-rule:evenodd;stroke-linejoin:round;stroke-miterlimit:2;"><path d="M37.274,18.137c0.247,-0.202 0.49,-0.406 0.731,-0.613c2.152,-1.848 4.047,-3.86 5.152,-6.056c0.768,-1.525 1.11,-3.141 0.55,-4.821c-0.881,-2.644 0.55,-5.506 3.194,-6.388c2.644,-0.881 5.506,0.55 6.388,3.194c2.08,6.241 0.007,12.275 -4.473,17.532c-1.211,1.422 -2.611,2.783 -4.118,4.072c5.481,6.929 7.076,14.805 7.209,21.674c0.117,6.029 -0.987,11.138 -0.987,13.507c0,2.787 -2.263,5.05 -5.05,5.05c-2.787,0 -5.05,-2.263 -5.05,-5.05c-0,-1.93 0.707,-5.645 0.936,-10.196c0.283,-5.623 -0.205,-12.838 -5.149,-18.932c-0.045,-0.056 -0.09,-0.111 -0.136,-0.166c-6.551,4.02 -12.59,6.514 -12.87,6.655c-5.581,2.79 -9.163,2.799 -11.381,2.026c-3.003,-1.046 -4.933,-3.604 -5.833,-7.561c-0.361,-1.589 -0.586,-3.492 -0.98,-5.464c-0.393,-1.967 -0.909,-4.097 -2.528,-5.715c-1.354,-1.354 -2.057,-2.535 -2.412,-3.432l-0.465,-2.279l0.271,-1.877l0.697,-1.466l0.956,-1.12l1.19,-0.858l1.569,-0.648c1.361,-0.393 3.492,-0.5 5.842,-0.271c4.022,0.391 8.901,1.601 9.412,1.729c7.32,1.83 12.969,4.433 17.336,7.474Zm-9.311,6.158c-2.897,-1.507 -6.358,-2.804 -10.474,-3.833c-0.252,-0.063 -1.745,-0.437 -3.623,-0.807c0.663,1.629 1.114,3.311 1.445,4.968c0.312,1.563 0.738,3.769 0.987,5.064c0.753,-0.246 1.795,-0.626 2.785,-1.121c0.211,-0.105 4.131,-1.659 8.879,-4.271Z"/></svg>