<?xml version="1.0" encoding="UTF-8" standalone="no"?><!DOCTYPE svg PUBLIC "-//W3C//DTD SVG 1.1//EN" "http://www.w3.org/Graphics/SVG/1.1/DTD/svg11.dtd"><svg width="100%" height="100%" viewBox="0 0 181 103" version="1.1" xmlns="http://www.w3.org/2000/svg" xmlns:xlink="http://www.w3.org/1999/xlink" xml:space="preserve" xmlns:serif="http://www.serif.com/" style="fill-rule:evenodd;clip-rule:evenodd;stroke-linejoin:round;stroke-miterlimit:2;"><path d="M0.328,94.471c-0.3,-1.586 0.163,-3.289 1.39,-4.515c1.971,-1.971 5.171,-1.971 7.142,0l0.691,1.025c1.076,-0.93 2.217,-2.084 3.409,-3.396c6.956,-7.662 15.232,-20.348 20.883,-29.516c1.845,-3.33 4.029,-7.004 6.606,-11.054c1.475,-2.318 4.533,-3.031 6.882,-1.605c2.349,1.426 3.126,4.469 1.749,6.847c-0.624,1.078 -2.925,5.022 -6.158,10.247c-3.843,6.859 -6.113,12.082 -7.312,16.029c1.879,-2.558 3.859,-5.615 5.782,-8.594c4.549,-7.045 8.735,-13.812 10.455,-15.413l1.002,-0.784l1.234,-0.6l1.324,-0.278l1.178,0.036l1.444,0.426l1.269,0.824l0.997,1.176l0.642,1.48l0.21,1.77c-0.006,0.445 -0.056,1.031 -0.186,1.765c-0.296,1.673 -1.132,4.679 -2.7,9.382c-0.972,2.917 -1.661,5.337 -2.097,7.325c0.675,-0.522 1.342,-1.074 1.903,-1.605c3.793,-3.592 7.512,-8.062 8.561,-9.861c3.066,-5.257 5.806,-10.931 7.283,-13.248c0.504,-0.791 0.964,-1.357 1.309,-1.706l1.523,-1.123l1.898,-0.546l1.886,0.175l1.523,0.717l1.072,0.987l0.83,1.412l0.353,1.372c0.094,0.708 0.056,2.306 -0.479,4.983c-0.73,3.649 -1.25,6.704 -1.583,9.236c4.304,-6.369 8.674,-14.761 9.554,-16.696c1.073,-2.361 3.761,-3.526 6.218,-2.693c2.457,0.832 3.883,3.391 3.3,5.918c-0.72,3.119 -1.316,5.839 -1.811,8.208c1.784,-2.89 3.821,-6.98 6.217,-12.971c2.044,-5.11 2.415,-4.511 7.817,-10.993c1.571,-1.885 4.269,-2.368 6.396,-1.145c2.127,1.223 3.068,3.798 2.229,6.104c-3.722,10.235 -5.677,17.152 -6.461,21.776c-0.017,0.103 -0.034,0.207 -0.05,0.311c0.825,-1.152 1.575,-2.485 2.273,-3.894c3.347,-6.755 5.456,-15.133 6.762,-18.089c0.434,-0.981 0.889,-1.675 1.249,-2.107l1.773,-1.429l1.527,-0.506l1.943,0.037l1.421,0.519l1.402,1.092l0.93,1.384c0.536,-2.202 1.243,-4.737 2.256,-7.775c0.803,-2.408 3.268,-3.846 5.76,-3.359c2.491,0.487 4.234,2.748 4.071,5.281c-0.446,6.923 -1.4,12.407 -1.932,16.889c-0.442,3.723 -0.849,6.51 0.606,8.79c1.415,2.216 4.275,3.739 9.112,5.455c0.803,-1.316 2.222,-3.818 3.475,-6.952c10.863,-27.157 10.202,-27.17 11.912,-56.237c0.164,-2.782 2.555,-4.908 5.338,-4.745c2.782,0.164 4.908,2.555 4.745,5.338c-1.806,30.703 -1.142,30.71 -12.617,59.395c-2.626,6.565 -4.743,9.698 -6.219,11.217c-0.918,0.946 -1.761,1.504 -2.482,1.864l-1.522,0.56l-1.556,0.193l-2.391,-0.406c-7.678,-2.559 -12.188,-5.295 -14.848,-8.311c-0.503,-0.57 -0.951,-1.153 -1.349,-1.752c-0.936,1.622 -2.055,3.416 -3.408,5.445c-0.52,0.78 -1.005,1.335 -1.414,1.722l-1.851,1.235l-1.779,0.438l-2.205,-0.291l-1.282,-0.653l-0.925,-0.803l-0.95,-1.386l-0.431,-1.218c-2.283,2.837 -4.923,4.831 -7.745,5.638c-1.033,0.295 -2.072,0.413 -3.046,0.339l-1.272,-0.208l-1.333,-0.487l-1.558,-1.035l-1.221,-1.383c-0.529,-0.775 -1.007,-1.776 -1.308,-3.093c-0.04,-0.173 -0.075,-0.357 -0.107,-0.553c-2.459,3.192 -4.559,4.748 -6.406,6.011c-1.191,0.815 -2.302,1.392 -3.351,2.511c-1.475,1.573 -3.785,2.036 -5.752,1.153c-1.421,-0.638 -2.436,-1.877 -2.817,-3.325c-0.782,0.961 -1.535,1.799 -2.241,2.465c-1.5,1.417 -2.961,2.264 -4.158,2.639l-1.3,0.279l-1.538,-0.001l-2.166,-0.671l-1.448,-1.042l-1.012,-1.223c-0.537,-0.823 -1.041,-1.978 -1.319,-3.571c-0.081,-0.465 -0.143,-0.998 -0.182,-1.603c-4.07,4.834 -10.412,11.253 -14.77,13.265c-1.682,0.777 -3.235,1.066 -4.527,1.008l-1.984,-0.37l-1.962,-1.051l-1.036,-0.986l-0.778,-1.106c-0.488,-0.85 -0.895,-1.945 -1.082,-3.352c-0.039,-0.295 -0.067,-0.616 -0.083,-0.963c-3.395,4.796 -6.806,8.847 -9.42,10.589l-1.226,0.648l-1.322,0.389l-1.392,0.12l-1.422,-0.166l-1.39,-0.464l-1.281,-0.747l-1.104,-0.984l-0.888,-1.156c-0.288,-0.453 -0.57,-1 -0.814,-1.654c-3.584,4.611 -7.07,8.545 -10.048,10.931c-5.592,4.479 -10.55,4.181 -13.517,1.213l-1.247,-1.852l-0.448,-1.832c-0.049,-0.581 0.142,-1.663 0.306,-2.447Z"/></svg>