<?xml version="1.0" encoding="UTF-8" standalone="no"?><!DOCTYPE svg PUBLIC "-//W3C//DTD SVG 1.1//EN" "http://www.w3.org/Graphics/SVG/1.1/DTD/svg11.dtd"><svg width="100%" height="100%" viewBox="0 0 86 111" version="1.1" xmlns="http://www.w3.org/2000/svg" xmlns:xlink="http://www.w3.org/1999/xlink" xml:space="preserve" xmlns:serif="http://www.serif.com/" style="fill-rule:evenodd;clip-rule:evenodd;stroke-linejoin:round;stroke-miterlimit:2;"><path d="M36.804,12.798c0.56,0.121 1.144,0.237 1.745,0.351c7.295,1.382 16.685,1.843 17.667,1.892c2.131,0.107 6.237,1.423 10.205,3.5c3.929,2.057 7.682,4.833 9.474,7.302c1.547,2.132 2.012,4.296 1.721,6.173l-0.604,1.953l-1.093,1.657c-0.53,0.608 -1.221,1.209 -2.128,1.747c0.599,0.736 1.29,1.589 1.885,2.333c9.093,11.366 10.823,21.628 8.788,29.579c-3.219,12.582 -16.144,20.182 -29.002,18.896c-0.947,-0.095 -5.786,-0.584 -10.59,-1.885c-3.727,-1.009 -7.379,-2.561 -9.714,-4.562c-13.5,-11.571 -15.354,-22.553 -12.391,-30.086c4.611,-11.725 22.516,-17.307 36.875,-7.734c6.791,4.527 8.103,9.266 7.363,12.549c-0.535,2.376 -2.187,4.691 -5.233,6.427c-2.771,1.58 -7.032,2.804 -12.258,3.384c-2.77,0.308 -5.269,-1.691 -5.577,-4.461c-0.308,-2.77 1.691,-5.269 4.461,-5.577c2.607,-0.29 4.893,-0.745 6.711,-1.388c0.411,-0.146 0.866,-0.366 1.26,-0.576c-0.596,-0.588 -1.454,-1.37 -2.331,-1.955c-5.308,-3.539 -11.43,-4.025 -16.102,-2.208c-2.638,1.025 -4.809,2.789 -5.771,5.235c-1.914,4.867 0.843,11.245 9.565,18.721c1.368,1.173 3.596,1.89 5.78,2.482c4.062,1.1 8.155,1.504 8.956,1.584c7.971,0.797 16.217,-3.55 18.213,-11.35c1.442,-5.638 -0.443,-12.707 -6.89,-20.766c-1.888,-2.36 -3.506,-4.116 -4.307,-5.561c-0.43,-0.775 -0.716,-1.523 -0.883,-2.238l-0.184,-1.988c0.087,-1.775 0.838,-3.938 3.635,-5.989c-0.31,-0.263 -0.629,-0.516 -0.928,-0.723c-3.188,-2.208 -7.487,-4.292 -9.41,-4.389c-1.036,-0.052 -10.769,-0.545 -18.552,-1.965c-3.867,-0.706 -7.292,-1.701 -9.357,-2.85c-1.312,-0.73 -2.265,-1.582 -2.9,-2.421l-0.84,-1.437l-0.382,-1.431c-4.156,3.566 -6.966,8.641 -8.94,14.122c-5.831,16.194 -4.535,36.171 -4.535,39.995c0,2.737 2.179,5.253 4.64,7.852c5.259,5.553 12.549,10.75 16.22,15.09c2.853,3.372 3.845,6.69 3.313,9.412c-0.399,2.043 -1.551,4.075 -4.103,5.774c-2.107,1.403 -5.647,2.729 -11.151,3.646c-2.749,0.458 -5.353,-1.402 -5.812,-4.151c-0.458,-2.749 1.402,-5.353 4.151,-5.812c2.422,-0.404 4.322,-0.86 5.765,-1.401c0.169,-0.063 0.345,-0.14 0.516,-0.221c-0.846,-1.043 -2.309,-2.77 -3.662,-3.998c-4.476,-4.064 -10.386,-8.659 -14.419,-13.457c-3.454,-4.109 -5.56,-8.466 -5.56,-12.733c0,-4.153 -1.201,-25.827 5.132,-43.416c4.701,-13.054 13.416,-23.819 28.617,-25.687c1.772,-0.218 3.527,0.516 4.617,1.931c1.089,1.415 1.351,3.299 0.688,4.957c-1.44,3.601 -1.75,4.776 -1.949,5.232l-0.408,0.64Z"/></svg>