<?xml version="1.0" encoding="UTF-8" standalone="no"?><!DOCTYPE svg PUBLIC "-//W3C//DTD SVG 1.1//EN" "http://www.w3.org/Graphics/SVG/1.1/DTD/svg11.dtd"><svg width="100%" height="100%" viewBox="0 0 44 80" version="1.1" xmlns="http://www.w3.org/2000/svg" xmlns:xlink="http://www.w3.org/1999/xlink" xml:space="preserve" xmlns:serif="http://www.serif.com/" style="fill-rule:evenodd;clip-rule:evenodd;stroke-linejoin:round;stroke-miterlimit:2;"><path d="M21.603,26.944c-0.373,0.645 -1.03,1.874 -1.488,3.239c2.614,0.292 6.087,0.715 8.611,1.152c2.752,0.476 5.086,1.182 6.416,1.942l1.656,1.263l1.129,1.585l0.569,1.935l-0.143,2.073c-0.35,1.387 -1.885,4.012 -6.898,6.018c-0.206,0.082 -0.413,0.173 -0.618,0.268c0.136,0.072 0.268,0.138 0.393,0.196c2.761,1.286 5.827,2.219 6.996,2.689c1.406,0.565 2.473,1.727 2.927,3.15c0.399,0.726 3.461,6.5 2.444,11.18c-0.702,3.229 -2.836,7.104 -8.588,10.939c-5.709,3.806 -8.696,4.7 -9.795,4.91c-1.795,0.668 -3.895,0.281 -5.337,-1.161c-1.971,-1.971 -1.971,-5.171 0,-7.142l1.745,-1.186c0.506,-0.218 1.536,0.341 7.785,-3.825c2.635,-1.756 3.999,-3.201 4.321,-4.68c0.194,-0.892 -0.134,-1.661 -0.42,-2.284c-0.197,-0.431 -0.409,-0.825 -0.607,-1.18c-2.534,-0.916 -6.591,-2.403 -9.291,-4.218c-2.807,-1.887 -4.384,-4.323 -4.675,-6.586c-0.231,-1.797 0.222,-4.282 2.726,-6.682c-4.115,-0.499 -7.816,-0.962 -8.665,-1.338l-1.014,-0.581l-1.032,-0.986l-0.719,-1.219l-0.325,-1.129c-0.903,-5.417 2.022,-11.745 3.635,-14.202c0.55,-0.838 1.042,-1.38 1.311,-1.633l1.281,-0.9c1.804,-0.902 1.664,-2.812 1.066,-4.396c-0.455,-1.204 -1.207,-2.328 -2.128,-3.145c-0.53,-0.469 -1.081,-0.909 -1.708,-0.908c-0.483,0.001 -0.82,0.454 -1.243,1.027c-0.788,1.068 -1.445,2.577 -2.013,4.565c-0.766,2.68 -3.563,4.234 -6.243,3.468c-2.68,-0.766 -4.234,-3.563 -3.468,-6.243c2.871,-10.049 8.398,-12.91 12.951,-12.918c5.389,-0.009 11.053,4.635 13.3,10.583c2.25,5.956 1.316,12.609 -4.843,16.361Z"/></svg>