<?xml version="1.0" encoding="UTF-8" standalone="no"?><!DOCTYPE svg PUBLIC "-//W3C//DTD SVG 1.1//EN" "http://www.w3.org/Graphics/SVG/1.1/DTD/svg11.dtd"><svg width="100%" height="100%" viewBox="0 0 90 85" version="1.1" xmlns="http://www.w3.org/2000/svg" xmlns:xlink="http://www.w3.org/1999/xlink" xml:space="preserve" xmlns:serif="http://www.serif.com/" style="fill-rule:evenodd;clip-rule:evenodd;stroke-linejoin:round;stroke-miterlimit:2;"><path d="M59.201,69.049l4.546,7.955c1.028,1.799 0.853,4.044 -0.442,5.662c-1.295,1.618 -3.447,2.28 -5.427,1.671c-3.824,-1.176 -6.922,-2.175 -9.556,-3.08l-0.035,0.156l-1.23,1.704l-1.729,1.07l-2.25,0.352l-1.323,-0.201c-0.385,-0.098 -0.855,-0.252 -1.411,-0.494c-1.839,-0.8 -5.775,-3.298 -13.329,-9.035c0.158,0.573 0.31,1.148 0.454,1.725c0.676,2.704 -0.97,5.448 -3.674,6.124c-2.704,0.676 -5.448,-0.97 -6.124,-3.674c-2.488,-9.953 -6.545,-16.488 -7.233,-19.576c-0.158,-0.709 -0.222,-1.345 -0.221,-1.902l0.215,-1.688l0.684,-1.622l1.238,-1.456c1.199,-1.022 3.893,-2.135 8.813,-0.905c2.388,0.597 7.006,3.428 11.731,7.361c3.175,2.643 6.423,5.755 9.142,8.77c1.934,0.869 3.941,1.697 6.357,2.592c-18.622,-14.659 -25.795,-18.838 -26.664,-19.476l-1.207,-1.21l-0.53,-0.939l-0.353,-1.219l0.002,-1.584l0.366,-1.241l0.826,-1.296l1.001,-0.876l1.066,-0.539l1.107,-0.268l1.274,0l1.611,0.433c6.483,2.315 26.767,13.073 41.877,20.186c-21.648,-20.748 -61.293,-49.467 -66.694,-53.395c-2.254,-1.639 -2.753,-4.8 -1.114,-7.054c1.639,-2.254 4.8,-2.753 7.054,-1.114c6.779,4.93 65.695,47.946 79.964,67.704c0.502,0.695 0.839,1.307 1.062,1.818l0.515,1.878l-0.072,1.793l-0.468,1.372l-1.364,1.748l-0.96,0.661l-1.303,0.521c-0.985,0.265 -2.717,0.346 -5.019,-0.261c-4.148,-1.094 -12.262,-4.815 -21.175,-9.15Z"/></svg>