<?xml version="1.0" encoding="UTF-8" standalone="no"?><!DOCTYPE svg PUBLIC "-//W3C//DTD SVG 1.1//EN" "http://www.w3.org/Graphics/SVG/1.1/DTD/svg11.dtd"><svg width="100%" height="100%" viewBox="0 0 113 89" version="1.1" xmlns="http://www.w3.org/2000/svg" xmlns:xlink="http://www.w3.org/1999/xlink" xml:space="preserve" xmlns:serif="http://www.serif.com/" style="fill-rule:evenodd;clip-rule:evenodd;stroke-linejoin:round;stroke-miterlimit:2;"><path d="M65.77,32.815c1.476,1.496 1.914,3.823 0.922,5.807c-1.246,2.493 -4.282,3.505 -6.775,2.258c-2.336,-1.168 -3.94,-3.579 -4.295,-7.45c-0.314,-3.414 0.718,-9.154 -2.793,-14.173c-2.254,-3.222 -6.436,-5.943 -13.778,-7.779c-11.67,-2.917 -20.197,-1.005 -25.019,3.448c-2.984,2.756 -4.359,6.451 -3.814,10.034c0.57,3.748 3.213,7.227 7.788,9.514c8.341,4.17 24.089,15.839 30.221,21.97c2.079,2.079 2.962,4.182 3.206,6.153c0.478,3.861 -1.912,7.866 -5.727,11.207c-1.017,0.891 -2.385,2.058 -3.587,3.076c8.651,2.581 14.039,2.071 17.476,-0.656c3.649,-2.896 4.814,-7.794 5.672,-12.042c0.674,-3.338 1.089,-6.429 1.681,-8.602c0.414,-1.521 0.95,-2.74 1.538,-3.622c2.092,-3.138 3.645,-4.71 5.019,-6.01c1.415,-1.339 2.569,-2.245 4.302,-5.712c7.05,-14.1 24.121,-29.161 26.595,-31.326c2.098,-1.835 5.291,-1.622 7.126,0.475c1.835,2.098 1.622,5.291 -0.475,7.126c-2.24,1.96 -17.831,15.478 -24.213,28.242c-2.205,4.41 -3.815,6.093 -5.532,7.721c-1.199,1.138 -2.504,2.213 -4.419,5.086c-0.316,0.475 -0.372,1.319 -0.568,2.315c-0.359,1.823 -0.69,4.004 -1.154,6.305c-1.303,6.453 -3.751,13.558 -9.294,17.956c-5.5,4.364 -14.306,6.573 -28.946,1.693c-6.103,-2.034 -7.358,-5.455 -7.356,-7.911c0.002,-2.176 1.426,-4.952 4.323,-7.485c1.759,-1.538 4.123,-3.194 5.977,-4.977c0.494,-0.475 1.098,-1.285 1.383,-1.68c-0.056,-0.068 -0.116,-0.137 -0.17,-0.191c-5.6,-5.6 -19.977,-16.269 -27.596,-20.078c-8.03,-4.015 -12.256,-10.451 -13.256,-17.03c-1.025,-6.743 1.331,-13.784 6.947,-18.971c6.646,-6.138 18.235,-9.848 34.321,-5.827c9.91,2.477 15.552,6.544 18.905,10.842c3.547,4.545 4.647,9.5 4.993,13.889c0.179,2.267 0.322,5.286 0.372,6.404Z"/></svg>