<?xml version="1.0" encoding="UTF-8" standalone="no"?><!DOCTYPE svg PUBLIC "-//W3C//DTD SVG 1.1//EN" "http://www.w3.org/Graphics/SVG/1.1/DTD/svg11.dtd"><svg width="100%" height="100%" viewBox="0 0 55 63" version="1.1" xmlns="http://www.w3.org/2000/svg" xmlns:xlink="http://www.w3.org/1999/xlink" xml:space="preserve" xmlns:serif="http://www.serif.com/" style="fill-rule:evenodd;clip-rule:evenodd;stroke-linejoin:round;stroke-miterlimit:2;"><path d="M16.978,15.261c0.194,0.055 0.387,0.109 0.578,0.161c8.985,2.477 20.951,6.044 28.527,12.023c6.223,4.912 9.786,11.318 8.404,19.606l-0.668,1.797l-0.863,1.065c-0.189,0.179 -1.15,0.979 -2.717,1.948c-4.288,2.652 -13.549,6.672 -21.664,3.131c-2.906,-1.268 -5.75,-3.45 -8.165,-7.071c-0.347,2.085 -0.813,4.373 -1.42,6.406c-0.89,2.979 -2.191,5.462 -3.581,6.852c-1.971,1.971 -5.171,1.971 -7.142,-0c-1.971,-1.971 -1.971,-5.171 0,-7.142c0.795,-0.795 1.098,-2.602 1.523,-4.41c0.939,-3.997 1.329,-8.356 1.399,-9.121l0.516,-2.052l0.602,-1.075l0.851,-0.971l1.229,-0.87l1.249,-0.5l1.334,-0.225l1.599,0.069c2.697,0.396 6.897,3.103 7.79,3.854l1.383,1.72c4.668,9.337 13.259,5.292 16.92,3.001c-0.145,-5.026 -4.384,-8.324 -9.36,-10.992c-6.542,-3.508 -14.685,-5.727 -20.986,-7.462c-4.977,-1.371 -8.959,-2.566 -10.814,-3.643c-0.604,-0.351 -1.092,-0.716 -1.476,-1.067l-1.088,-1.276l-0.758,-1.721l-0.127,-2.198l0.554,-1.784l1.279,-1.724c0.777,-0.747 2.281,-1.719 4.85,-2.575c3.523,-1.174 4.586,-2.07 5.965,-3.365c1.358,-1.276 2.94,-2.786 5.971,-4.806c2.319,-1.546 5.457,-0.918 7.003,1.401c1.546,2.319 0.918,5.457 -1.401,7.003c-3.085,2.057 -4.308,3.487 -5.657,4.681c-0.517,0.458 -1.044,0.898 -1.64,1.329Z"/></svg>