<?xml version="1.0" encoding="UTF-8" standalone="no"?><!DOCTYPE svg PUBLIC "-//W3C//DTD SVG 1.1//EN" "http://www.w3.org/Graphics/SVG/1.1/DTD/svg11.dtd"><svg width="100%" height="100%" viewBox="0 0 64 53" version="1.1" xmlns="http://www.w3.org/2000/svg" xmlns:xlink="http://www.w3.org/1999/xlink" xml:space="preserve" xmlns:serif="http://www.serif.com/" style="fill-rule:evenodd;clip-rule:evenodd;stroke-linejoin:round;stroke-miterlimit:2;"><path d="M52.72,22.347c-1.95,-1.631 -2.4,-4.508 -0.958,-6.672c1.546,-2.319 4.684,-2.947 7.003,-1.401c1.214,0.809 2.37,2.113 3.194,3.947c1.172,2.607 1.757,6.673 1.008,11.166c-1.141,6.851 -5.276,14.76 -14.284,19.233c-8.074,4.01 -20.521,5.332 -38.993,-0.826c-4.738,-1.579 -7.624,-5.041 -8.928,-9.646c-1.501,-5.299 -0.628,-12.459 1.896,-19.116c2.457,-6.48 6.421,-12.423 10.576,-15.71c3.906,-3.09 8.103,-4.048 11.914,-2.778c2.644,0.881 4.075,3.744 3.194,6.388c-0.881,2.644 -3.744,4.075 -6.388,3.194c-0.451,-0.15 -0.889,0.121 -1.359,0.379c-0.809,0.444 -1.596,1.106 -2.368,1.899c-2.455,2.52 -4.627,6.259 -6.125,10.21c-1.454,3.833 -2.302,7.883 -1.915,11.25c0.227,1.979 0.852,3.734 2.697,4.349c24.44,8.147 35.467,1.645 39.034,-6.759c1.042,-2.455 1.409,-4.951 1.263,-6.99c-0.054,-0.759 -0.36,-1.791 -0.461,-2.118Z"/></svg>