<?xml version="1.0" encoding="UTF-8" standalone="no"?><!DOCTYPE svg PUBLIC "-//W3C//DTD SVG 1.1//EN" "http://www.w3.org/Graphics/SVG/1.1/DTD/svg11.dtd"><svg width="100%" height="100%" viewBox="0 0 73 105" version="1.1" xmlns="http://www.w3.org/2000/svg" xmlns:xlink="http://www.w3.org/1999/xlink" xml:space="preserve" xmlns:serif="http://www.serif.com/" style="fill-rule:evenodd;clip-rule:evenodd;stroke-linejoin:round;stroke-miterlimit:2;"><path d="M15.317,20.626c-0.63,0.589 -1.728,1.657 -2.304,2.458c-1.43,1.989 -2.433,4.001 -2.619,4.373c-0.107,0.213 -0.208,0.53 -0.259,0.701c0.236,0.199 0.945,0.784 1.5,1.08c1.257,0.67 2.776,1.216 4.397,1.716c4.369,1.35 9.392,2.339 13.149,3.587c2.576,0.856 4.669,1.898 6.046,3.042c0.942,0.784 1.643,1.65 2.13,2.554l0.822,2.478c0.249,1.721 -0.043,3.72 -1.517,5.924c-1.144,1.709 -3.306,3.829 -6.959,6.264c-3.298,2.199 -5.512,4.058 -6.8,5.734c-0.297,0.387 -0.579,0.948 -0.704,1.21c0.119,0.133 0.308,0.336 0.455,0.457c0.557,0.456 1.241,0.856 1.989,1.234c2.505,1.267 5.636,2.218 8.464,3.075c4.395,1.332 8.168,2.706 9.664,3.965l1.55,1.839l0.72,2.098c0.402,2.815 -0.246,5.493 -1.677,8.007c-1.546,2.716 -4.131,5.261 -6.753,7.55c-1.185,1.035 -2.365,2.016 -3.369,2.956c0.172,0.067 0.344,0.131 0.513,0.187c9.108,3.036 16.219,-2.668 16.992,-3.321c0.89,-1.469 2.079,-2.427 2.899,-2.963c0.036,-1.686 0.166,-5.551 0.631,-12.061l0.536,-2.005c0.201,-0.428 0.567,-1.044 1.106,-1.747c1.589,-2.074 5.501,-6.011 5.957,-6.467c0.45,-0.45 0.788,-0.815 0.901,-1.235c0.185,-0.686 -0.201,-1.321 -0.501,-2.077c-0.281,-0.708 -0.619,-1.445 -0.976,-2.227c-2.279,-4.994 -5.142,-11.424 -3.462,-21.505c0.495,-2.968 0.43,-3.297 0.618,-5.336c-1.852,-2.879 -3.435,-4.74 -4.435,-6.433c-1.298,-2.199 -1.93,-4.254 -1.819,-6.776c0.093,-2.102 0.794,-4.684 2.596,-8.288c0.144,-0.288 1.109,-1.477 2.68,-2.794c0.368,-0.309 1.015,-1.036 1.363,-1.436c-0.662,-2.294 0.384,-4.807 2.596,-5.913c2.493,-1.246 5.529,-0.234 6.775,2.258c1.549,3.098 1.036,6.159 -0.62,8.827c-1.057,1.702 -3.168,3.59 -4.2,4.461c-0.745,1.525 -1.168,2.567 -1.098,3.505c0.065,0.883 0.697,1.49 1.351,2.408c1.169,1.64 2.675,3.604 4.343,6.385c0.571,0.952 0.813,2.066 0.687,3.17c-0.464,4.074 -0.22,3.691 -0.875,7.621c-1.524,9.142 2.234,14.246 3.862,18.341c1.191,2.997 1.601,5.711 0.868,8.432c-0.498,1.85 -1.529,3.768 -3.512,5.752c-0.332,0.332 -3.57,3.851 -4.76,5.145c-0.545,7.977 -0.478,10.484 -0.542,11.586c-0.036,0.627 -0.109,1.071 -0.2,1.455l-0.56,1.526c-1.079,2.157 -2.863,3.367 -3.703,3.844c-0.305,0.477 -0.939,1.338 -1.997,2.328c-3.382,3.163 -12.712,9.78 -26.693,5.12c-5.869,-1.956 -7.94,-4.843 -8.541,-7.064l-0.212,-2.68l0.588,-2.271c0.586,-1.409 1.719,-2.954 3.294,-4.504c1.552,-1.528 3.616,-3.172 5.548,-4.945c1.019,-0.935 2.003,-1.906 2.775,-2.939c0.147,-0.197 0.293,-0.392 0.428,-0.588c-3.272,-0.998 -9.992,-3.138 -13.878,-5.018c-5.482,-2.652 -8.727,-6.654 -8.519,-11.269c0.166,-3.672 2.961,-8.954 12.057,-15.018c1.027,-0.684 1.961,-1.442 2.685,-2.075c-2.933,-1.164 -7.32,-1.922 -11.369,-3.034c-4.495,-1.235 -8.655,-2.821 -11.27,-4.92c-2.044,-1.64 -3.35,-3.61 -3.883,-5.842c-0.517,-2.165 -0.354,-4.686 1.097,-7.589c0.472,-0.943 4.8,-8.965 9.471,-11.55c3.587,-1.985 7.351,-2.052 10.881,1.477c1.971,1.971 1.971,5.171 0,7.142c-1.738,1.738 -4.431,1.943 -6.395,0.617Zm43.554,74.824c-0.056,0.027 -0.086,0.04 -0.086,0.04c0,0 0.033,-0.013 0.086,-0.04Zm-4.343,-9.125c0.043,-0.021 0.067,-0.031 0.067,-0.031c0,0 -0.025,0.01 -0.067,0.031Z"/></svg>