<?xml version="1.0" encoding="UTF-8" standalone="no"?><!DOCTYPE svg PUBLIC "-//W3C//DTD SVG 1.1//EN" "http://www.w3.org/Graphics/SVG/1.1/DTD/svg11.dtd"><svg width="100%" height="100%" viewBox="0 0 98 74" version="1.1" xmlns="http://www.w3.org/2000/svg" xmlns:xlink="http://www.w3.org/1999/xlink" xml:space="preserve" xmlns:serif="http://www.serif.com/" style="fill-rule:evenodd;clip-rule:evenodd;stroke-linejoin:round;stroke-miterlimit:2;"><path d="M8.147,1.241c0.856,0.243 13.245,3.729 23.7,4.648c7.28,0.64 14.946,0.687 21.139,-0.639c3.341,-0.715 6.224,-1.754 8.061,-3.591l1.676,-1.206l1.057,-0.346l1.261,-0.102l1.679,0.368l1.682,1.121l0.661,0.823l0.552,1.157l0.223,1.024l-0.024,1.307l-0.42,1.411c-0.139,0.314 -0.712,1.615 -0.533,3.958c0.279,3.643 2.124,9.021 7.681,16.429c4.338,5.784 6.301,10.401 8.017,13.84c0.727,1.458 1.204,2.666 2.307,3.357c1.218,0.763 2.969,0.835 5.747,0.729c1.496,-0.057 2.941,0.553 3.944,1.666c1.003,1.112 1.46,2.612 1.248,4.095c-1.021,7.15 -2.877,11.057 -5.083,13.592c-1.538,1.768 -3.297,2.96 -5.327,3.933c-2.083,0.999 -4.545,1.711 -7.378,3.127c-4.676,2.338 -7.794,2.069 -9.784,1.238l-1.269,-0.677l-1.082,-0.866c-0.808,-0.776 -1.472,-1.749 -1.967,-2.908c-0.684,-1.602 -1.012,-3.739 -1.288,-5.906c-0.114,-0.897 -0.45,-2.368 -0.56,-2.836c-1.909,-1.277 -3.079,-2.077 -4.192,-2.236c-0.606,-0.086 -1.083,0.272 -1.803,0.612c-1.177,0.555 -2.558,1.304 -4.335,2.192c-5.504,2.752 -10.243,5.819 -14.778,7.688c-4.269,1.759 -8.418,2.545 -12.72,1.769c-4.164,-0.752 -8.579,-2.983 -13.371,-7.775c-3.264,-3.264 -3.881,-5.787 -3.859,-7.007l0.384,-1.964l1.099,-1.769l1.62,-1.241l1.944,-0.658c0.967,-0.18 2.407,-0.206 4.177,-0.063c2.409,0.194 5.771,0.685 9.207,0.62l0.553,-0.498c-0.114,-0.149 -0.259,-0.327 -0.395,-0.459c-1.693,-1.639 -4.863,-3.258 -10.128,-5.013c-4.466,-1.489 -6.375,-4.104 -7.136,-6.577c-0.808,-2.626 -0.292,-5.502 1.136,-7.945c1.931,-3.305 5.518,-5.403 7.824,-5.57l1.593,0.078l1.769,0.593l1.599,1.195l1.082,1.54c1.246,2.493 0.234,5.529 -2.258,6.775c-0.597,0.299 -1.226,0.468 -1.853,0.518c11.39,3.902 15.374,8.542 16.517,11.835c1.621,4.668 -0.68,8.697 -3.486,11.083c-2.032,1.728 -4.295,2.395 -5.177,2.486c0.003,0 0.005,0 0.008,0c3.024,0.171 5.902,-1.099 9.026,-2.692c3.435,-1.751 7.058,-3.959 11.108,-5.984c5.945,-2.973 8.767,-4.242 12.082,-3.768c2.199,0.314 4.784,1.442 8.745,4.083c2.474,1.65 3.867,4.741 4.413,8.35c0.125,0.826 0.317,2.026 0.471,2.982c0.192,-0.08 0.385,-0.167 0.568,-0.259c2.058,-1.029 3.933,-1.727 5.629,-2.395c1.549,-0.61 2.926,-1.059 3.974,-2.263c0.643,-0.739 1.149,-1.702 1.57,-2.983c-2.153,-0.389 -3.805,-1.056 -5.166,-1.908c-1.883,-1.179 -3.309,-2.75 -4.568,-4.806c-1.994,-3.257 -3.5,-8.256 -8.476,-14.891c-6.147,-8.196 -8.654,-14.706 -9.47,-19.581c-1.234,0.405 -2.533,0.753 -3.891,1.043c-7.072,1.515 -15.824,1.555 -24.139,0.824c-9.52,-0.837 -18.451,-2.664 -23.496,-4.216c-3.244,-0.998 -5.278,-2.224 -5.987,-2.934c-1.971,-1.971 -1.971,-5.171 0,-7.142c1.82,-1.82 4.688,-1.959 6.668,-0.419Z"/></svg>