<?xml version="1.0" encoding="UTF-8" standalone="no"?><!DOCTYPE svg PUBLIC "-//W3C//DTD SVG 1.1//EN" "http://www.w3.org/Graphics/SVG/1.1/DTD/svg11.dtd"><svg width="100%" height="100%" viewBox="0 0 559 104" version="1.1" xmlns="http://www.w3.org/2000/svg" xmlns:xlink="http://www.w3.org/1999/xlink" xml:space="preserve" xmlns:serif="http://www.serif.com/" style="fill-rule:evenodd;clip-rule:evenodd;stroke-linejoin:round;stroke-miterlimit:2;"><g id="join"><path d="M28.503,50.98c-0.547,-2.733 1.229,-5.396 3.962,-5.942c2.733,-0.547 5.396,1.229 5.942,3.962c1.437,7.184 4.049,12.967 5.648,18.32c1.481,4.958 2.163,9.622 1.152,14.471c-0.998,4.785 -3.643,9.841 -9.302,15.501c-14.31,14.31 -42.132,1.396 -34.712,-20.866c0.881,-2.644 3.744,-4.075 6.388,-3.194c2.644,0.881 4.075,3.744 3.194,6.388c-3.819,11.457 10.624,17.895 17.988,10.53c3.854,-3.854 5.877,-7.162 6.557,-10.42c0.666,-3.195 0.033,-6.252 -0.942,-9.519c-1.677,-5.614 -4.367,-11.695 -5.874,-19.229Z"/><path d="M32.572,25.215c1.22,0.922 2.008,2.385 2.008,4.03l0,1.121c0,1.147 -0.39,2.259 -1.107,3.155l-1.454,1.349l-1.432,0.708l-2.107,0.297l-1.883,-0.4l-1.488,-0.832l-1.345,-1.321c-0.985,-1.241 -1.797,-3.168 -2.077,-4.717l-0.068,-2.476l0.556,-1.772l0.799,-1.176l0.855,-0.773l1.889,-0.868l1.284,-0.146l1.55,0.234l1.527,0.708l1.341,1.096c0.523,0.523 0.907,1.133 1.153,1.783Z"/><path d="M68.662,43.322c12.12,2.239 17.915,14.87 14.71,25.177c-2.444,7.86 -10.091,14.997 -25.024,14.001c-7.624,-0.508 -12.385,-7.582 -12.692,-16.49c-0.412,-11.955 7.263,-25.475 20.382,-23.835c1.004,0.126 1.903,0.539 2.624,1.146Zm-8.168,9.938c-0.812,0.576 -1.506,1.339 -2.087,2.205c-1.911,2.847 -2.778,6.701 -2.657,10.198c0.059,1.712 0.353,3.342 0.963,4.688c0.484,1.067 1.145,1.994 2.307,2.072c8.465,0.564 13.322,-2.467 14.707,-6.923c1.895,-6.096 -2.81,-13.644 -11.41,-12.21c-0.623,0.104 -1.238,0.089 -1.823,-0.029Z"/><path d="M102.099,62.235c0.207,0.551 0.32,1.148 0.32,1.771l0,5.046c0,2.734 -2.176,4.972 -4.91,5.048c-2.733,0.076 -5.031,-2.038 -5.182,-4.768c-0.513,-9.228 -0.583,-15.028 -0.581,-17.612c-0.965,-1.896 -0.655,-4.277 0.931,-5.862l0.947,-0.798l1.169,-0.606l1.937,-0.323l2.182,0.548l1.068,0.718l0.972,1.131l0.697,1.647c0.085,0.347 0.177,0.89 0.209,1.686c0.058,1.457 -0.046,4.98 0.242,12.374Zm-2.827,-8.762c0.182,-0.136 0.365,-0.292 0.546,-0.474c-0.173,0.173 -0.356,0.331 -0.546,0.474Z"/><path d="M98.155,17.284c0.37,0.373 0.685,0.807 0.928,1.294c0.105,0.211 0.197,0.432 0.274,0.662c0.099,0.297 0.18,0.578 0.247,0.845l0.183,0.529l0.028,0.61c0.043,0.362 0.056,0.685 0.052,0.969l-0.21,1.557l-0.46,1.194l-0.872,1.244l-1.236,1.002l-1.37,0.587l-1.269,0.204l-1.487,-0.114l-1.627,-0.558l-1.506,-0.983l-1.237,-1.308l-0.483,-0.838c-0.112,-0.17 -0.215,-0.348 -0.307,-0.534l-0.04,-0.07l-0.012,-0.038c-0.135,-0.289 -0.245,-0.595 -0.325,-0.916c-0.108,-0.431 -0.157,-0.864 -0.151,-1.289l-0.029,-0.301l0.18,-1.421l0.569,-1.403l1.101,-1.358l1.599,-1.037l2.191,-0.566l2.096,0.141l1.626,0.618l1.378,1.039l0.171,0.238Z"/><path d="M116.429,60.926c1.355,0.906 2.248,2.45 2.248,4.201l0,8.41c0,2.613 -1.994,4.795 -4.596,5.03c-2.603,0.235 -4.955,-1.555 -5.422,-4.126c-0.04,-0.218 -3.239,-11.59 -2.188,-19.71c0.618,-4.781 2.696,-8.564 6.107,-10.467c2.323,-1.296 5.424,-1.89 9.563,-0.855c5.826,1.457 10.336,6.431 13.346,12.43c3.778,7.53 5.287,16.425 5.548,17.989c0.458,2.749 -1.402,5.353 -4.151,5.812c-2.749,0.458 -5.353,-1.402 -5.812,-4.151c-0.219,-1.313 -1.44,-8.797 -4.613,-15.12c-1.626,-3.241 -3.62,-6.374 -6.768,-7.161c-0.986,-0.246 -1.709,-0.473 -2.215,-0.108c-0.537,0.386 -0.645,1.135 -0.814,1.906c-0.39,1.778 -0.393,3.858 -0.232,5.921Z"/><path d="M187.919,6.851c0.366,1.062 0.368,2.221 0.006,3.284c0.634,4.049 1.509,11.283 1.949,22.273c0.785,19.636 -0.172,19.524 2.165,32.376c0.499,2.742 -1.323,5.373 -4.065,5.872c-2.742,0.499 -5.373,-1.323 -5.872,-4.065c-2.438,-13.411 -1.5,-13.29 -2.32,-33.779c-0.835,-20.882 -2.765,-25.17 -2.708,-26.858l0.157,-1.233l0.469,-1.337l1.315,-1.816l1.032,-0.812l1.324,-0.571l2.196,-0.117l1.974,0.765l0.837,0.68l0.758,0.966l0.531,1.166l0.268,1.413c0.028,0.366 0.009,1.145 -0.016,1.794Zm-5.401,-3.359c-0.897,0.056 -1.915,0.411 -2.942,1.439c0.825,-0.825 1.866,-1.305 2.942,-1.439Z"/><path d="M165.19,27.596c-2.493,-1.246 -3.505,-4.282 -2.258,-6.775c1.246,-2.493 4.282,-3.505 6.775,-2.258c4.92,2.46 11.384,2.934 17.944,3.128c7.541,0.223 15.221,-0.013 21.438,0.875c2.759,0.394 4.679,2.954 4.285,5.713c-0.394,2.759 -2.954,4.679 -5.713,4.285c-7.152,-1.022 -16.326,-0.431 -24.863,-0.985c-6.499,-0.422 -12.655,-1.505 -17.609,-3.982Z"/><path d="M235.431,34.162c2.172,-1.227 4.855,-1.867 8.206,-1.532c4.853,0.485 8.78,3.916 11.422,9.164c4.484,8.908 5.35,23.354 5.453,25.309c0.146,2.783 -1.994,5.162 -4.778,5.308c-2.783,0.146 -5.162,-1.994 -5.308,-4.778c-0.075,-1.433 -0.534,-10.729 -3.087,-18.15c-0.71,-2.065 -1.563,-3.981 -2.707,-5.398c-0.57,-0.706 -1.164,-1.323 -2,-1.406c-3.891,-0.389 -4.37,3.286 -4.795,7.148c-0.749,6.792 0.249,15.163 0.247,20.799c-0.001,2.7 -2.125,4.921 -4.822,5.043c-2.697,0.122 -5.013,-1.899 -5.257,-4.587c-0.434,-4.77 -3.375,-37.148 -3.375,-59.778c0,-2.787 2.263,-5.05 5.05,-5.05c2.787,-0 5.05,2.263 5.05,5.05c0,7.047 0.291,15.054 0.702,22.857Z"/><path d="M276.413,57.94c2.005,2.211 4.761,3.836 7.365,4.572c1.804,0.51 3.595,0.753 4.829,-0.168c0.643,-0.48 0.95,-1.319 1.107,-2.417c0.394,-2.759 2.954,-4.679 5.713,-4.285c2.759,0.394 4.679,2.954 4.285,5.713c-0.614,4.297 -2.551,7.209 -5.067,9.085c-3.506,2.615 -8.489,3.24 -13.616,1.791c-11.23,-3.175 -22.492,-16.125 -15.501,-30.107c5.843,-11.686 13.811,-13.134 19.567,-11.186c9.475,3.207 14.588,17.43 4.799,24.772c-1.288,0.966 -3.396,1.737 -5.852,2.059c-2.613,0.342 -5.707,0.269 -7.63,0.17Zm-2.369,-10.089c0.471,-0.1 0.963,-0.133 1.467,-0.091c0.503,0.042 3.363,0.287 6.056,0.107c0.83,-0.055 2.128,-0.318 2.456,-0.386c1.333,-1.145 1.292,-2.843 0.663,-4.218c-0.732,-1.6 -2.188,-3.066 -4.001,-2.905c-2.175,0.193 -4.123,2.285 -6.122,6.284c-0.203,0.406 -0.376,0.81 -0.519,1.21Z"/><path d="M353.928,56.234c0.29,0.053 0.58,0.133 0.866,0.24c2.61,0.979 3.934,3.892 2.955,6.502c-1.597,4.257 -2.858,6.594 -3.636,7.533l-1.126,1.082l-1.412,0.775l-1.709,0.34l-1.971,-0.307l-1.309,-0.684l-1.214,-1.188c-0.548,-0.731 -1.315,-2.486 -1.479,-5.225c-0.306,-5.108 0.483,-16.745 -0.39,-27.226c-1.016,-12.194 -1.692,-19.617 -1.981,-22.719c-1.891,-1.977 -1.865,-5.117 0.079,-7.061l1.837,-1.317l2.069,-0.502l1.971,0.298l1.624,0.919l1.308,1.567l0.829,2.317c0.516,2.426 0.965,9.288 2.329,25.659c0.542,6.5 0.441,13.445 0.36,18.998Z"/><path d="M370.946,60.887c0.169,0.473 0.37,0.947 0.608,1.421c2.192,4.385 6.695,5.399 10.096,4.698c0.823,-0.17 1.584,-0.437 2.21,-0.809c0.247,-0.147 0.587,-0.457 0.688,-0.552c0.622,-2.634 3.23,-4.323 5.904,-3.788c2.733,0.547 4.508,3.209 3.962,5.942c-0.653,3.267 -3.254,6.326 -7.297,8.039c-7.259,3.076 -19.202,1.777 -24.597,-9.014c-5.612,-11.224 -0.168,-22.392 4.677,-28.115c1.602,-1.892 3.154,-3.205 4.211,-3.87l1.446,-0.728l1.672,-0.372c11.918,-0.851 16.397,3.902 17.425,8.145c0.569,2.349 0.238,5.04 -1.034,7.704c-1.422,2.979 -4.081,5.997 -7.293,8.169c-3.926,2.655 -8.517,3.934 -12.677,3.129Zm0.759,-10.567c0.008,0.008 0.016,0.016 0.024,0.024c0.954,0.954 2.263,0.799 3.493,0.412c2.136,-0.672 4.185,-2.218 5.569,-3.95c0.475,-0.594 0.871,-1.209 1.125,-1.827c0.052,-0.128 0.102,-0.309 0.139,-0.465c-0.727,-0.19 -3.068,-0.742 -5.646,-0.74c-0.944,0.994 -3.456,3.782 -4.705,6.546Z"/><path d="M408.577,66.318c5.599,0.008 8.712,-3.129 10.735,-7.004c1.873,-3.589 2.965,-7.72 3.98,-11.272c0.663,-2.32 2.874,-3.847 5.278,-3.645c2.404,0.202 4.33,2.077 4.596,4.475l-0.167,1.945l0.004,0c-0.002,0.006 -0.003,0.012 -0.005,0.018l-0.009,0.101c-0.228,0.896 -0.733,4.525 4.244,11.161c0.479,0.639 1.012,1.301 1.243,1.586c0.357,0.085 1.155,0.273 1.874,0.417c2.733,0.547 4.508,3.209 3.962,5.942c-0.547,2.733 -3.209,4.508 -5.942,3.962c-2.809,-0.562 -4.171,-1.015 -5.324,-1.748c-1.139,-0.723 -2.148,-1.772 -3.892,-4.099c-0.685,-0.913 -1.298,-1.805 -1.847,-2.675c-3.938,6.689 -10.115,11.742 -20.883,10.845c-3.907,-0.326 -7.624,-4.16 -8.29,-10.477c-1.095,-10.382 5.406,-26.202 20.752,-23.645c2.749,0.458 4.609,3.062 4.151,5.812c-0.458,2.749 -3.062,4.609 -5.812,4.151c-6.346,-1.058 -8.691,5.202 -9.068,10.004c-0.109,1.395 0.219,3.209 0.419,4.147Z"/><path d="M468.507,50.959l1.363,4.593c0.227,-0.014 0.453,-0.037 0.677,-0.065l2.472,-8.081l0.952,0.834l0.849,1.326l0.412,1.683l0.012,0.422c0,3.163 1.401,6.848 2.887,10.633c1.827,4.654 3.878,9.402 4.89,13.627c1.089,4.548 0.962,8.64 -0.7,11.892c-1.259,2.464 -3.36,4.59 -6.774,6.053c-9.487,4.066 -14.821,2.967 -17.724,1.169c-4.364,-2.704 -4.925,-9.595 -4.995,-10.985c-0.223,-2.566 1.544,-4.93 4.128,-5.4c2.742,-0.499 5.373,1.323 5.872,4.065l0.081,1.586c-0.011,0.448 -0.266,1.476 0.279,2.191c0.258,0.339 0.798,0.151 1.599,0.087c1.723,-0.138 3.925,-0.773 6.78,-1.996c1.643,-0.704 2.132,-1.95 2.072,-3.448c-0.079,-1.98 -0.733,-4.195 -1.552,-6.53c-0.588,-1.677 -1.25,-3.4 -1.926,-5.138c-1.548,1.662 -3.448,2.676 -5.578,2.912c-11.903,1.323 -17.034,-2.711 -18.752,-6.771c-1.136,-2.684 -1.077,-5.937 0.165,-9.257c1.392,-3.721 4.316,-7.6 7.603,-10.345c2.428,-2.028 5.06,-3.425 7.388,-3.965c2.383,-0.553 4.576,-0.302 6.419,0.619c2.493,1.246 3.505,4.282 2.258,6.775c-0.296,0.592 -0.692,1.1 -1.159,1.514Zm-3.391,1.278c-0.595,-0.003 -1.196,-0.112 -1.777,-0.335c-0.431,0.191 -2.252,1.021 -3.265,1.867c-1.673,1.397 -3.225,3.25 -4.183,5.148c-0.509,1.007 -1.101,1.954 -0.758,2.766c0.065,0.153 0.273,0.169 0.477,0.259c0.378,0.166 0.821,0.289 1.328,0.387c1.537,0.296 3.494,0.323 5.94,0.085c0.223,-0.399 0.698,-1.281 0.903,-1.904c0.995,-3.013 1.258,-6.688 1.333,-8.271Z"/><path d="M492.02,46.504c-0.051,1.378 -0.07,3.155 0.055,4.719c0.277,3.457 0.908,7.322 2.055,10.261c0.228,0.584 0.637,1.29 0.947,1.788c0.236,-0.179 0.495,-0.39 0.7,-0.595c2.111,-2.111 2.419,-2.894 2.546,-4.691c0.097,-1.371 0.182,-3.05 0.511,-5.347c0.583,-4.08 0.655,-3.9 1.381,-7.837c0.432,-2.342 2.441,-4.064 4.821,-4.132c2.38,-0.068 4.485,1.536 5.05,3.849c0.319,1.304 2.63,10.836 5.324,17.037c0.158,0.363 0.349,0.752 0.547,1.131c2.417,-0.978 5.222,0.053 6.408,2.424c0.555,1.109 0.662,2.326 0.391,3.445c0,0 -0.203,0.849 -0.47,1.484l-0.886,1.577l-0.834,0.953l-1.181,0.903l-1.695,0.727l-1.879,0.244c-0.947,-0.006 -2.086,-0.191 -3.416,-0.796c-1.821,-0.828 -4.242,-3.611 -6.089,-7.709c-0.747,1.091 -1.819,2.311 -3.387,3.88c-3.872,3.872 -7.435,4.413 -10.224,3.731c-2.739,-0.669 -5.293,-2.836 -7.078,-6.375c-3.421,-6.785 -4.291,-19.517 -3.478,-24.406c0.138,-0.828 0.324,-1.512 0.518,-2.035l1.003,-1.816l1.817,-1.504l2.104,-0.584l1.821,0.195l1.379,0.61l1.441,1.261l0.992,1.546c1.05,2.1 0.498,4.585 -1.192,6.061Zm20.923,19.718c-0.021,0.052 -0.036,0.097 -0.044,0.134l0.044,-0.134Z"/><path d="M532.714,67.371c0.16,1.056 0.421,2.063 0.788,2.993c1.028,2.601 3.154,4.356 6.503,3.798c4.61,-0.768 7.926,-2.435 8.705,-2.853c0.019,-0.422 0.046,-0.925 0.076,-1.061l0.53,-1.406c1.354,-2.436 4.431,-3.316 6.867,-1.962c1.774,0.986 2.722,2.885 2.585,4.785c-0.012,0.942 -0.189,3.266 -1.529,5.232c-1.487,2.18 -5.171,5.495 -15.572,7.228c-4.838,0.806 -8.726,-0.265 -11.748,-2.391c-4.184,-2.942 -6.774,-8.207 -7.349,-14.283c-1.344,-14.206 8.284,-31.746 26.035,-28.009l1.453,0.513l1.454,1.016c0.844,0.776 1.811,2.13 2.49,3.99c1.65,4.518 1.772,12.571 -3.679,17.778c-3.247,3.102 -8.665,5.477 -17.609,4.632Zm1.177,-10.034c4.104,0.364 6.938,-0.114 8.794,-1.37c1.979,-1.339 2.352,-3.575 2.245,-5.386c-0.028,-0.479 -0.144,-1.035 -0.263,-1.501c-5.432,-0.276 -9,3.606 -10.757,8.207c-0.006,0.017 -0.013,0.034 -0.019,0.05Z"/></g></svg>