<?xml version="1.0" encoding="UTF-8" standalone="no"?><!DOCTYPE svg PUBLIC "-//W3C//DTD SVG 1.1//EN" "http://www.w3.org/Graphics/SVG/1.1/DTD/svg11.dtd"><svg width="100%" height="100%" viewBox="0 0 115 95" version="1.1" xmlns="http://www.w3.org/2000/svg" xmlns:xlink="http://www.w3.org/1999/xlink" xml:space="preserve" xmlns:serif="http://www.serif.com/" style="fill-rule:evenodd;clip-rule:evenodd;stroke-linejoin:round;stroke-miterlimit:2;"><g id="join"><path d="M14.934,41.858c-0.252,-2.776 1.796,-5.234 4.572,-5.486c2.776,-0.252 5.234,1.796 5.486,4.572c0.577,6.347 4.513,13.481 6.832,20.693c2.97,9.237 3.618,18.477 -3.321,26.804c-5.006,6.007 -10.618,7.17 -15.448,5.618c-6.127,-1.968 -11.903,-9.663 -13.03,-20.931c-0.277,-2.773 1.749,-5.25 4.522,-5.527c2.773,-0.277 5.25,1.749 5.527,4.522c0.409,4.092 1.56,7.55 3.275,9.942c1.028,1.433 2.159,2.531 3.555,2.493c1.317,-0.036 2.535,-1.018 3.838,-2.582c4.447,-5.336 3.369,-11.327 1.465,-17.246c-2.554,-7.943 -6.64,-15.881 -7.275,-22.871Z"/><path d="M7.961,15.446c0.104,-0.017 0.209,-0.031 0.315,-0.041c2.773,-0.277 5.25,1.749 5.527,4.522l0.466,4.66c0.259,2.589 -1.491,4.951 -4.044,5.456c-2.552,0.506 -5.071,-1.011 -5.818,-3.503c-0.4,-1.333 -1.199,-2.538 -1.519,-3.257l-0.575,-1.983l0.042,-1.58l0.522,-1.532l1.337,-1.63l1.701,-0.914l1.337,-0.244l0.709,0.045Z"/><path d="M41.477,26.442c2.42,-1.471 4.842,-1.974 7.105,-1.842c3.294,0.193 6.438,1.8 8.994,4.596c6.039,6.605 8.573,20.546 1.449,30.519c-13.931,19.503 -36.537,-1.647 -24.065,-28.373c0.812,-1.74 1.684,-2.787 2.433,-3.421l1.688,-1.039l2.183,-0.467l0.212,0.026Zm8.52,9.313c-0.224,0.816 -0.657,1.586 -1.297,2.226c-1.594,1.594 -3.991,1.899 -5.893,0.915c-2.21,6.701 -1.448,12.772 1.086,16.291c0.772,1.072 1.654,1.927 2.763,1.899c1.44,-0.037 2.736,-1.262 4.15,-3.241c3.518,-4.925 3.028,-11.487 0.722,-15.802c-0.46,-0.861 -0.958,-1.676 -1.531,-2.288Z"/><path d="M65.331,38.603c-0.514,-2.739 1.293,-5.381 4.033,-5.894c2.739,-0.514 5.381,1.293 5.894,4.033c2.087,11.13 2.965,16.755 3.581,19.987c0.41,2.151 0.559,2.739 1.25,3.774c1.546,2.319 0.919,5.457 -1.401,7.003c-2.319,1.546 -5.457,0.919 -7.003,-1.401c-1.184,-1.775 -1.757,-2.89 -2.383,-5.627c-0.665,-2.907 -1.442,-8.389 -3.971,-21.876Z"/><path d="M58.386,8.15c-1.711,-2.2 -1.314,-5.375 0.886,-7.087c2.2,-1.711 5.375,-1.314 7.087,0.886l3.262,4.194c1.711,2.2 1.314,5.375 -0.886,7.087c-2.2,1.711 -5.375,1.314 -7.087,-0.886l-3.262,-4.194Z"/><path d="M82.213,42.85c0.107,-1.692 0.274,-3.316 0.515,-4.824c0.621,-3.896 1.78,-7.127 3.349,-9.271c1.641,-2.242 3.742,-3.574 6.223,-3.987l2.448,0.047l1.55,0.506l1.242,0.705c1.235,0.846 2.608,2.328 3.904,4.416c5.825,9.388 12.211,34.489 12.897,37.23c0.676,2.704 -0.97,5.448 -3.674,6.124c-2.704,0.676 -5.448,-0.97 -6.124,-3.674c-0.56,-2.239 -5.097,-20.493 -9.871,-30.891c-0.38,-0.829 -0.869,-1.708 -1.336,-2.491c-0.265,0.864 -0.468,1.834 -0.634,2.877c-1.747,10.958 0.902,28.631 1.23,30.87c0,0.003 0.001,0.006 0.001,0.009c0.404,2.758 -1.504,5.321 -4.261,5.727c-2.758,0.406 -5.323,-1.499 -5.731,-4.256c-0,-0.003 -0.001,-0.006 -0.001,-0.009c-1.844,-12.446 -1.876,-12.194 -3.285,-24.873c-0.182,-1.639 0.443,-3.183 1.558,-4.234Z"/></g></svg>