<?xml version="1.0" encoding="UTF-8" standalone="no"?><!DOCTYPE svg PUBLIC "-//W3C//DTD SVG 1.1//EN" "http://www.w3.org/Graphics/SVG/1.1/DTD/svg11.dtd"><svg width="100%" height="100%" viewBox="0 0 1000 190" version="1.1" xmlns="http://www.w3.org/2000/svg" xmlns:xlink="http://www.w3.org/1999/xlink" xml:space="preserve" xmlns:serif="http://www.serif.com/" style="fill-rule:evenodd;clip-rule:evenodd;stroke-linejoin:round;stroke-miterlimit:2;"><g id="slogan"><path d="M104.555,126.07l1.578,-1.45l1.056,-0.465l1.302,-0.233l1.387,0.108l1.588,0.555c1.09,0.529 3.468,2.148 7.321,5.359c4.124,3.437 6.905,6.93 8.629,10.362c3.85,3.027 8.132,6.062 12.43,8.572c4.195,2.45 8.394,4.408 12.208,5.225c2.5,0.535 4.785,0.67 6.548,-0.428c-0.007,-0.349 -0.03,-1.018 -0.105,-1.462c-0.163,-0.961 -0.428,-1.986 -0.716,-3.046c-1.353,-4.979 -2.802,-10.534 -1.531,-14.979c0.355,-1.241 2.403,-4.44 5.947,-6.008c0.358,-0.159 0.731,-0.306 1.115,-0.437c-0.555,-2.433 -0.946,-4.817 -1.101,-7.064c-0.558,-8.108 1.902,-14.591 8.024,-17.652c10.742,-5.371 18.887,-1.157 24.587,4.971c4.573,4.916 7.276,11.196 8.154,12.512c1.546,2.319 0.918,5.457 -1.401,7.003c-2.319,1.546 -5.457,0.918 -7.003,-1.401c-0.782,-1.174 -3.068,-6.853 -7.145,-11.236c-2.95,-3.172 -7.114,-5.596 -12.675,-2.816c-1.435,0.717 -2.029,2.122 -2.317,3.751c-0.484,2.741 -0.099,6.035 0.652,9.478c0.35,1.603 0.784,3.232 1.275,4.856c0.394,0.344 0.788,0.722 1.181,1.136c3.169,3.338 6.621,9.989 8.926,22.662c0.444,2.444 -0.955,4.848 -3.299,5.669c-2.344,0.821 -4.938,-0.185 -6.116,-2.372c-0.849,-1.576 -5.357,-10.055 -8.812,-19.685c-0.169,0.061 -0.32,0.138 -0.441,0.208c-0.185,1.575 0.282,3.325 0.725,5.076c0.816,3.222 1.854,6.43 2.121,9.114c0.408,4.098 -0.705,7.361 -3.638,9.561c-3.284,2.463 -7.374,3.401 -12.001,2.948c-5.496,-0.538 -11.918,-3.162 -18.258,-6.864c-1.861,-1.087 -3.718,-2.264 -5.544,-3.496c-2.385,10.47 -13.66,18.887 -24.808,20.751c-6.661,1.114 -13.141,-0.089 -17.766,-3.852c-4.596,-3.739 -7.721,-10.123 -6.767,-20.138c0.743,-7.801 5.646,-15.031 10.803,-19.626c3.889,-3.465 7.994,-5.359 10.609,-5.605l2.722,0.193l0.554,0.244Zm14.509,20.448c-4.451,-3.643 -8.249,-7.169 -10.808,-9.807c-0.084,0.241 -0.177,0.488 -0.277,0.739c-1.035,2.588 -3.977,3.848 -6.564,2.813c-1.231,-0.492 -2.161,-1.416 -2.687,-2.527c-0.471,0.329 -0.931,0.681 -1.338,1.043c-3.46,3.082 -6.969,7.809 -7.467,13.042c-0.528,5.543 0.543,9.276 3.087,11.346c2.513,2.045 6.107,2.33 9.726,1.725c7.306,-1.222 15.129,-6.224 16.641,-13.097c0.374,-1.7 0.286,-3.464 -0.311,-5.277Z"/><path d="M225.129,147.643c2.077,1.45 5.197,2.471 8.698,3.322c7.977,1.937 17.97,2.392 25.497,1.283c2.259,-0.333 4.277,-0.8 5.893,-1.447c0.459,-0.184 1,-0.499 1.394,-0.746c-0.015,-0.022 -0.03,-0.043 -0.045,-0.063c-1.672,-2.23 -1.22,-5.398 1.01,-7.07c2.23,-1.672 5.398,-1.22 7.07,1.01c2.457,3.276 2.781,6.27 2.093,8.786c-0.864,3.156 -3.886,6.173 -9.02,7.922c-7.909,2.695 -21.71,3.012 -33.101,0.827c-8.362,-1.604 -15.384,-4.725 -18.675,-8.615c-8.698,-10.28 -6.946,-26.239 0.103,-36.14c3.842,-5.396 9.17,-8.934 14.925,-9.43c5.698,-0.492 12.155,1.844 18.175,9.37c3.737,4.671 4.509,9.291 3.576,13.47c-1.251,5.603 -6.052,10.676 -12.345,13.863c-4.765,2.413 -10.3,3.745 -15.247,3.659Zm-5.097,-11.727c1.205,1.26 3.19,1.592 5.293,1.636c3.397,0.07 7.203,-0.915 10.489,-2.578c3.783,-1.915 7.214,-4.559 7.156,-8.069c-0.021,-1.276 -0.617,-2.575 -1.711,-3.943c-3.229,-4.036 -6.364,-5.88 -9.42,-5.617c-2.997,0.259 -5.565,2.415 -7.566,5.226c-2.599,3.651 -4.277,8.552 -4.241,13.346Z"/><path d="M352.671,80.61c0.192,0.324 0.795,1.325 1.338,2.038c1.932,2.539 4.875,5.981 8.471,11.691c1.877,2.981 1.203,3.15 22.785,37.682c1.378,2.204 0.857,5.094 -1.203,6.679c-2.06,1.585 -4.986,1.348 -6.764,-0.548c-9.431,-10.06 -8.82,-10.144 -19.619,-18.783c-2.176,-1.741 -2.53,-4.922 -0.789,-7.098c0.836,-1.044 2.002,-1.669 3.231,-1.844c-4.85,-8.121 -5.047,-8.893 -6.189,-10.707c-4.342,-6.896 -7.713,-10.358 -9.403,-12.985c-1.186,-1.844 -1.795,-3.495 -1.96,-5.161c-0.23,-2.326 0.353,-4.888 2.674,-8.37c1.546,-2.319 4.684,-2.947 7.003,-1.401c2.319,1.546 2.947,4.684 1.401,7.003c-0.426,0.639 -0.836,1.499 -0.977,1.803Z"/><path d="M385.236,99.641c-0.941,-0.268 -1.877,-0.22 -3.97,0.096c-6.249,0.943 -19.071,3.953 -51.008,10.135c-2.736,0.53 -5.388,-1.262 -5.918,-3.998c-0.53,-2.736 1.262,-5.388 3.998,-5.918c32.194,-6.231 45.121,-9.255 51.42,-10.206c5.724,-0.864 7.421,-0.314 10.221,0.886c1.661,0.712 2.657,1.463 3.349,2.206l1.141,1.642l0.724,2.387c0.156,1.087 0.016,2.717 0.424,5.577c0.394,2.759 -1.526,5.319 -4.285,5.713c-2.759,0.394 -5.319,-1.526 -5.713,-4.285c-0.23,-1.611 -0.335,-3.177 -0.383,-4.235Z"/><path d="M413.537,101.563c-1.817,-0.14 -3.705,-0.262 -5.664,-0.365c-2.783,-0.146 -4.924,-2.525 -4.778,-5.308c0.146,-2.783 2.525,-4.924 5.308,-4.778c20.305,1.069 33.467,4.197 41.722,8.188c6.467,3.127 10.246,6.898 12.325,10.716c3.345,6.142 2.554,12.717 -0.091,18.51c-3.572,7.822 -10.562,13.947 -12.297,14.938c-12.229,6.988 -22.751,6.532 -30.551,2.63c-16.625,-8.318 -21.274,-33.027 -5.976,-44.53Zm16.17,2.021l-0.23,1.018c-0.29,0.753 -1.397,2.109 -1.397,3.816c0,2.787 -2.263,5.05 -5.05,5.05c-1.975,0 -3.687,-1.137 -4.517,-2.791c-7.709,7.465 -4.233,21.504 5.519,26.383c5.381,2.692 12.585,2.454 21.021,-2.367c1.18,-0.674 5.69,-5.041 8.12,-10.364c1.357,-2.971 2.124,-6.334 0.409,-9.484c-1.687,-3.098 -5.39,-5.764 -11.722,-8.077c-3.357,-1.226 -7.375,-2.3 -12.153,-3.186Z"/><path d="M572.529,115.729c3.934,7.134 9.02,16.327 14.519,28.241c1.13,2.448 0.137,5.353 -2.255,6.597c-2.392,1.244 -5.34,0.389 -6.696,-1.942c-17.42,-29.962 -25.826,-45.226 -29.765,-53.864c-4.68,-10.264 -3.873,-12.697 -3.281,-16.841l0.45,-1.581l0.786,-1.319l1.117,-1.124l1.639,-0.99c2.986,-1.352 10.839,-1.507 19.682,0.078c10.009,1.794 21.347,5.521 27.555,10.287c3.75,2.88 5.847,6.271 6.185,9.696c0.319,3.236 -0.754,6.827 -4.457,10.414c-3.733,3.617 -10.837,7.623 -22.709,11.58c-0.251,0.084 -1.38,0.427 -2.771,0.768Zm-14.243,-23.52c1.982,-1.587 4.887,-1.462 6.724,0.374c1.636,1.636 1.914,4.118 0.834,6.042c1.271,-1.205 3.134,-1.715 4.93,-1.176c2.67,0.801 4.187,3.619 3.386,6.288c-0.109,0.364 -0.216,0.715 -0.319,1.052c7.376,-2.559 12.45,-5.007 15.653,-7.409c1.036,-0.777 1.835,-1.517 2.386,-2.262c0.311,-0.421 0.572,-0.772 0.534,-1.16c-0.049,-0.499 -0.419,-0.909 -0.824,-1.358c-0.902,-1 -2.17,-1.907 -3.653,-2.774c-5.51,-3.221 -13.693,-5.593 -20.994,-6.902c-4.14,-0.742 -7.999,-1.138 -10.928,-1.096c-0.385,0.006 -0.804,0.035 -1.198,0.072c0.024,1.808 0.591,4.033 2.705,8.668c0.238,0.521 0.492,1.067 0.764,1.639Z"/><path d="M611.895,81.019l-0.246,0.014l-1.66,-0.51c-1.866,-0.933 -2.902,-2.869 -2.783,-4.829c-0.059,-0.281 -0.112,-0.557 -0.128,-0.713l0.061,-1.602l0.841,-2.007l1.221,-1.236l1.74,-0.802l1.904,-0.107l1.66,0.51c2.076,1.038 3.59,2.981 5.093,4.75l0.02,0.023c-0.259,-1.595 -0.456,-3.147 -0.574,-4.632c-0.396,-4.972 0.104,-9.309 1.551,-12.439c1.342,-2.902 3.433,-4.984 6.313,-6.117c3.199,-1.259 7.787,-1.324 14.043,1.193c7.213,2.902 17.433,9.488 31.497,21.389c2.128,1.8 2.393,4.989 0.593,7.117c-1.8,2.128 -4.989,2.393 -7.117,0.593c-12.879,-10.897 -22.139,-17.072 -28.743,-19.729c-2.964,-1.192 -5.058,-1.761 -6.574,-1.165c-0.932,0.367 -1.113,1.428 -1.337,2.592c-0.321,1.667 -0.328,3.628 -0.158,5.765c1.185,14.875 10.93,36.886 11.515,38.445c0.907,2.42 -0.158,5.134 -2.47,6.29c-2.312,1.156 -5.123,0.38 -6.514,-1.798c-3.454,-5.406 -2.176,-10.321 -19.74,-30.984c-0.003,-0.003 -0.005,-0.006 -0.008,-0.009Zm-0.029,-10.049c0.881,-0.068 1.792,0.095 2.639,0.519c-1.008,-0.504 -1.891,-0.6 -2.639,-0.519Z"/><path d="M697.428,91.56c5.962,2.473 12.537,4.416 18.457,5.555c4.06,0.781 7.813,1.175 10.842,1.018c0.989,-0.051 1.885,-0.159 2.662,-0.353c0.112,-0.028 0.236,-0.064 0.359,-0.102c-0.419,-0.836 -1.237,-2.339 -2.244,-3.547c-1.784,-2.141 -1.495,-5.328 0.647,-7.112c2.141,-1.784 5.328,-1.495 7.112,0.647c4.381,5.258 5.281,9.508 4.725,12.381c-0.544,2.812 -2.279,5.066 -5.288,6.518c-4.089,1.974 -11.849,2.175 -20.722,0.469c-10.273,-1.976 -22.121,-6.277 -30.846,-11.499c-0.529,0.108 -1.052,0.213 -1.566,0.316c-2.733,0.547 -5.396,-1.229 -5.942,-3.962c-0.126,-0.629 -0.129,-1.255 -0.025,-1.852c-0.523,-0.487 -1.012,-0.977 -1.464,-1.469c-3.47,-3.784 -5.003,-7.84 -4.559,-11.718c0.431,-3.76 2.73,-7.762 8.323,-11.258c5.939,-3.712 18.141,-3.876 25.147,-1.799c2.843,0.843 4.945,2.118 6.098,3.359l1.336,2.01l0.51,1.838c1.178,9.425 -3.425,15.28 -10.409,19.069c-1.001,0.543 -2.057,1.038 -3.153,1.491Zm-12.384,-6.739c3.74,-0.838 7.568,-1.919 10.72,-3.629c2.911,-1.579 5.143,-3.806 5.277,-7.347c-0.8,-0.287 -2.033,-0.693 -3.075,-0.88c-4.753,-0.856 -11.298,-0.943 -14.715,1.193c-2.115,1.322 -3.479,2.421 -3.642,3.843c-0.149,1.304 0.801,2.469 1.968,3.741c0.965,1.052 2.134,2.082 3.467,3.08Z"/><path d="M789.142,100.034c0.371,-0.984 0.794,-2.22 0.992,-3.205c0.878,-4.36 1.01,-9.037 1.026,-9.583c0.076,-2.58 -0.002,-2.39 -0.002,-32.264l0.157,-1.456l0.506,-1.268l0.679,-0.933l0.86,-0.746l1.062,-0.557l1.304,-0.307l1.7,0.122l1.692,0.767l1.068,1.007l0.905,1.751c0.209,0.679 1.28,4.854 6.51,14.007c1.383,2.42 0.541,5.507 -1.879,6.89c-1.413,0.808 -3.054,0.856 -4.45,0.275c0.017,10.725 0.038,11.17 -0.016,13.009c-0.028,0.938 -0.467,11.788 -3.164,17.623c-2.234,4.834 -5.909,6.96 -10.148,5.941c-2.326,-0.56 -5.54,-2.58 -9.049,-7.727c-9.64,-14.138 -15.429,-24.724 -18.015,-29.76c-1.773,-0.784 -3.011,-2.559 -3.011,-4.621c0,-1.33 0.094,-2.229 0.2,-2.691l0.713,-1.731l1.155,-1.288l1.384,-0.786l1.403,-0.314l1.315,0.064l1.199,0.369l1.086,0.651l1.382,1.533c1.303,1.986 5.578,12.416 19.534,32.884c0.607,0.891 1.31,1.71 1.902,2.345Z"/><path d="M853.06,66.129l1.696,0.24l1.433,0.751l1.904,2.101c0.801,1.181 2.105,3.459 3.953,7.155c1.046,2.091 1.645,4.356 1.852,6.7c2.695,4.482 6.092,9.113 9.813,12.208c2.072,1.724 4.164,3.049 6.368,2.846c1.255,-0.116 2.447,-0.825 3.664,-2.042c1.971,-1.971 5.171,-1.971 7.142,0c1.971,1.971 1.971,5.171 -0,7.142c-3.207,3.207 -6.569,4.652 -9.875,4.958c-4.64,0.429 -9.393,-1.508 -13.757,-5.138c-2.123,-1.766 -4.165,-3.947 -6.074,-6.324c-1.116,2.366 -2.534,4.631 -4.195,6.696c-5.85,7.271 -14.463,11.712 -22.157,10.257c-5.33,-1.009 -10.608,-4.67 -14.306,-12.805c-8.532,-18.771 4.252,-32.807 15.612,-37.618c5.942,-2.516 11.556,-2.214 14.563,-0.21l1.647,1.615l0.615,1.112l0.104,0.357Zm0.923,19.859c-1.813,-3.189 -3.278,-6.184 -4.282,-8.524c-1.251,0.235 -2.592,0.001 -3.734,-0.76l-1.647,-1.615l-0.615,-1.112l-0.441,-1.51c-0.04,-0.234 -0.057,-0.542 -0.058,-0.883c-0.425,0.076 -0.866,0.183 -1.319,0.316c-3.711,1.091 -8.036,3.866 -10.922,7.898c-3.073,4.292 -4.339,10.1 -1.251,16.895c1.914,4.21 4.231,6.539 6.989,7.061c4.439,0.84 9.035,-2.469 12.41,-6.664c2.634,-3.274 4.645,-7.296 4.87,-11.101Z"/><path d="M897.126,83.187c-1.546,-2.319 -0.918,-5.457 1.401,-7.003c2.319,-1.546 5.457,-0.918 7.003,1.401l15.768,23.652c1.546,2.319 0.918,5.457 -1.401,7.003c-2.319,1.546 -5.457,0.918 -7.003,-1.401l-15.768,-23.652Z"/><path d="M888.492,45.232c0.547,-2.733 3.209,-4.508 5.942,-3.962c2.733,0.547 4.508,3.209 3.962,5.942l-0.876,4.38c-0.547,2.733 -3.209,4.508 -5.942,3.962c-2.733,-0.547 -4.508,-3.209 -3.962,-5.942l0.876,-4.38Z"/><path d="M937.762,73.629c0.975,-1.155 2.456,-1.863 4.081,-1.792c2.785,0.121 4.947,2.48 4.826,5.265c-0.581,13.366 -0.079,17.647 -0.22,19.263l-0.318,1.624l-0.677,1.422l-1.085,1.24l-1.364,0.896l-1.677,0.521l-1.703,-0.033l-2.186,-0.899l-1.491,-1.412c-1.496,-1.9 -3.371,-7.667 -3.55,-8.277c-19.882,-67.599 -19.009,-79.613 -18.593,-86.694c0.164,-2.782 2.555,-4.908 5.338,-4.745c2.782,0.164 4.908,2.555 4.745,5.338c-0.367,6.246 -0.826,16.425 13.873,68.283Z"/><path d="M48.78,92.088c2.971,8.541 7.924,20.343 8.363,21.396c3.719,8.926 12.093,15.94 28.816,51.476c1.103,2.344 0.254,5.142 -1.966,6.477c-1.411,0.849 -3.085,0.932 -4.517,0.347c0.158,0.689 0.225,1.368 0.218,2.03c-0.025,2.447 -1.101,4.956 -3.497,7.185c-2.212,2.057 -5.832,4.019 -10.44,5.513c-12.165,3.942 -31.707,4.968 -45.97,-0.548c-10.64,-4.115 -18.444,-11.688 -19.636,-23.607c-1.463,-14.629 7.25,-24.506 20.793,-27.795c11.798,-2.864 27.722,-0.344 42.77,9.19c-8.414,-14.776 -13.284,-20.117 -15.895,-26.384c-0.624,-1.497 -9.677,-23.377 -11.018,-30.256c-0.24,-1.229 -0.282,-2.207 -0.228,-2.864l0.636,-2.267l1.305,-1.633l1.479,-0.879l1.233,-0.318l1.123,-0.029l2.201,0.65c0.859,0.455 2.689,2.046 5.123,5.696c1.427,2.141 1.002,4.979 -0.895,6.619Zm22.958,71.36c-15.647,-16.678 -35.019,-22.322 -48.409,-19.07c-8.372,2.033 -14.03,7.931 -13.126,16.975c0.782,7.819 6.248,12.493 13.229,15.192c12.166,4.705 28.837,3.722 39.213,0.36c2.081,-0.674 3.89,-1.439 5.304,-2.299c0.391,-0.238 0.827,-0.593 1.167,-0.89c-0.122,-0.109 -0.25,-0.217 -0.371,-0.305c-0.98,-0.716 -2.303,-1.406 -3.985,-2.103c-1.621,-0.672 -3.54,-1.328 -5.781,-1.968c-2.68,-0.766 -4.234,-3.563 -3.468,-6.243c0.766,-2.68 3.563,-4.234 6.243,-3.468c4.195,1.199 7.48,2.503 9.985,3.821Z"/><path d="M965.033,88.864l-0.536,-0.956l-0.47,-1.59l-0.07,-1.672l0.665,-2.374l0.871,-1.336l1.008,-0.989l1.011,-0.647l1.292,-0.473l2.304,-0.196c2.762,0.136 8.49,1.981 13.203,4.892c2.05,1.266 3.828,2.709 5.233,4.262c1.617,0.249 3.368,0.493 5.265,0.73c2.766,0.346 4.73,2.872 4.385,5.637c-0.346,2.766 -2.872,4.73 -5.637,4.385c-0.36,-0.045 -0.715,-0.09 -1.065,-0.136c-0.49,1.35 -1.348,2.678 -2.621,3.952c-6.691,6.691 -12.467,7.936 -16.541,7.172c-5.719,-1.072 -9.437,-6.201 -10.109,-11.761c-0.388,-3.21 0.252,-6.386 1.812,-8.9Zm16.317,7.647c-3.23,-0.705 -5.836,-1.449 -7.932,-2.189c-0.216,0.387 -0.197,0.964 -0.208,1.477c-0.029,1.399 0.356,3.028 1.586,3.665c0.766,0.396 1.742,0.135 2.965,-0.456c1.115,-0.539 2.306,-1.364 3.589,-2.497Z"/></g></svg>