<?xml version="1.0" encoding="UTF-8" standalone="no"?>
<!-- Created with Inkscape (http://www.inkscape.org/) -->

<svg
   version="1.1"
   id="svg1"
   viewBox="0 0 103.53583 167.63811"
   xmlns:xlink="http://www.w3.org/1999/xlink"
   xmlns="http://www.w3.org/2000/svg"
   xmlns:svg="http://www.w3.org/2000/svg">
  <defs
     id="defs1" />
  <g
     id="g1"
     transform="translate(-31.766135,-0.02344016)">
    <g
       id="g2">
      <path
         style="fill:#b9b9b9;fill-opacity:1"
         d="m 82.88,166.55661 c 0,-4.24756 -3.635816,-13.95539 -6.874144,-18.35435 -1.493054,-2.02817 -1.493054,-2.02817 -0.174191,-4.63522 2.245451,-4.43866 2.224572,-4.10351 2.237171,-35.90896 0.01323,-33.407114 0.08165,-32.922605 -4.903199,-34.725149 -1.537598,-0.556002 -1.518146,-0.615997 1.007778,-3.108378 3.847034,-3.795947 3.681881,-2.881988 3.497847,-19.357155 C 77.482661,33.583304 77.312063,32.525996 74.207277,28.998773 72.693145,27.278628 72.666288,27.746504 74.451373,24.746441 78.093863,18.624774 81.239332,10.444971 82.583045,3.6 c 0.784799,-3.99781827 1.35603,-4.6438693 1.714791,-1.9393948 0.790777,5.9611722 4.056406,15.1820538 7.677853,21.6793068 2.4735,4.437717 2.377727,3.89871 0.992998,5.58859 -3.05742,3.731178 -3.355175,5.796049 -3.363001,23.321776 -0.0066,14.675492 -0.148832,13.869288 3.028446,17.160378 2.52999,2.620614 2.535278,2.757362 0.165564,4.281693 C 88.905662,76.197208 89.12,74.236106 89.12,107.36 c 0,32.08212 -0.0254,31.64908 2.104747,35.88926 1.537862,3.06121 1.574704,2.54624 -0.39052,5.45857 -3.014033,4.46661 -5.241196,10.02821 -6.28229,15.68794 C 84.00602,167.36356 82.88,168.81885 82.88,166.55661 Z M 64.96,140.41598 C 24.600501,106.49614 22.547018,95.379483 50.667006,63.04 58.952477,53.511267 59.683197,47.35982 54.354197,32 c -1.983426,-5.716842 -2.074228,-6.081732 -1.511501,-6.073961 1.193411,0.01648 15.000934,18.692497 18.001307,24.34852 0.733858,1.3834 1.076019,0.795456 -8.040927,13.816959 -20.509794,29.29362 -21.866498,39.966952 -7.083385,55.725682 3.15064,3.35856 3.080027,3.6305 3.110133,-11.9772 0.02887,-14.966305 -0.288035,-17.022944 -2.889811,-18.754252 -1.704562,-1.134274 -1.21447,-1.494119 9.590644,-7.041825 7.758815,-3.983635 7.928348,-3.974701 5.832524,0.307358 -2.470029,5.046611 -2.337203,3.327069 -2.574473,33.328719 -0.116921,14.784 -0.234211,26.916 -0.260645,26.96 -0.220479,0.36699 -1.244943,-0.27158 -3.568063,-2.22402 z M 98.521591,142.64 c -0.02113,-0.044 -0.139346,-12.104 -0.262713,-26.8 -0.253559,-30.205148 -0.157538,-29.073839 -2.899046,-34.156417 -2.093161,-3.880584 -2.124377,-3.882343 6.157448,0.346976 10.51348,5.368965 11.47913,6.052717 9.69572,6.865293 -2.50459,1.14117 -2.56519,1.562312 -2.65338,18.440298 -0.0804,15.38385 -0.0804,15.38385 2.45263,12.78256 15.17626,-15.58536 13.82787,-26.547285 -6.93091,-56.346066 C 96.376553,52.712583 96,52.128521 96,51.237872 96,49.197995 113.03743,25.6 114.51019,25.6 c 0.27894,0 0.37702,0.208539 0.26336,0.56 -0.0996,0.308 -0.97184,2.864 -1.9383,5.68 -5.67388,16.532004 -4.93571,21.327016 5.07276,32.951827 25.58824,29.720673 23.79109,41.368033 -11.0382,71.538723 -6.950764,6.02107 -8.077737,6.87281 -8.348219,6.30945 z"
         id="path8" />
      <path
         style="fill:#a3a3a3;fill-opacity:1"
         d="m 82.88,166.55661 c 0,-4.24756 -3.635816,-13.95539 -6.874144,-18.35435 -1.493054,-2.02817 -1.493054,-2.02817 -0.174191,-4.63522 2.245451,-4.43866 2.224572,-4.10351 2.237171,-35.90896 0.01323,-33.407114 0.08165,-32.922605 -4.903199,-34.725149 -1.537598,-0.556002 -1.518146,-0.615997 1.007778,-3.108378 3.847034,-3.795947 3.681881,-2.881988 3.497847,-19.357155 C 77.482661,33.583304 77.312063,32.525996 74.207277,28.998773 72.693145,27.278628 72.666288,27.746504 74.451373,24.746441 78.093863,18.624774 81.239332,10.444971 82.583045,3.6 c 0.784799,-3.99781827 1.35603,-4.6438693 1.714791,-1.9393948 0.790777,5.9611722 4.056406,15.1820538 7.677853,21.6793068 2.4735,4.437717 2.377727,3.89871 0.992998,5.58859 -3.05742,3.731178 -3.355175,5.796049 -3.363001,23.321776 -0.0066,14.675492 -0.148832,13.869288 3.028446,17.160378 2.52999,2.620614 2.535278,2.757362 0.165564,4.281693 C 88.905662,76.197208 89.12,74.236106 89.12,107.36 c 0,32.08212 -0.0254,31.64908 2.104747,35.88926 1.537862,3.06121 1.574704,2.54624 -0.39052,5.45857 -3.014033,4.46661 -5.241196,10.02821 -6.28229,15.68794 C 84.00602,167.36356 82.88,168.81885 82.88,166.55661 Z M 64.96,140.41598 C 24.600501,106.49614 22.547018,95.379483 50.667006,63.04 58.952477,53.511267 59.683197,47.35982 54.354197,32 c -1.983426,-5.716842 -2.074228,-6.081732 -1.511501,-6.073961 1.193411,0.01648 15.000934,18.692497 18.001307,24.34852 0.733858,1.3834 1.076019,0.795456 -8.040927,13.816959 -20.509794,29.29362 -21.866498,39.966952 -7.083385,55.725682 3.15064,3.35856 3.080027,3.6305 3.110133,-11.9772 0.02887,-14.966305 -0.288035,-17.022944 -2.889811,-18.754252 -1.704562,-1.134274 -1.21447,-1.494119 9.590644,-7.041825 7.758815,-3.983635 7.928348,-3.974701 5.832524,0.307358 -2.470029,5.046611 -2.337203,3.327069 -2.574473,33.328719 -0.116921,14.784 -0.234211,26.916 -0.260645,26.96 -0.220479,0.36699 -1.244943,-0.27158 -3.568063,-2.22402 z M 98.521591,142.64 c -0.02113,-0.044 -0.139346,-12.104 -0.262713,-26.8 -0.253559,-30.205148 -0.157538,-29.073839 -2.899046,-34.156417 -2.093161,-3.880584 -2.124377,-3.882343 6.157448,0.346976 10.51348,5.368965 11.47913,6.052717 9.69572,6.865293 -2.50459,1.14117 -2.56519,1.562312 -2.65338,18.440298 -0.0804,15.38385 -0.0804,15.38385 2.45263,12.78256 15.17626,-15.58536 13.82787,-26.547285 -6.93091,-56.346066 C 96.376553,52.712583 96,52.128521 96,51.237872 96,49.197995 113.03743,25.6 114.51019,25.6 c 0.27894,0 0.37702,0.208539 0.26336,0.56 -0.0996,0.308 -0.97184,2.864 -1.9383,5.68 -5.67388,16.532004 -4.93571,21.327016 5.07276,32.951827 25.58824,29.720673 23.79109,41.368033 -11.0382,71.538723 -6.950764,6.02107 -8.077737,6.87281 -8.348219,6.30945 z"
         id="path7" />
      <path
         style="fill:#8c8c8c;fill-opacity:1"
         d="m 82.88,166.55661 c 0,-4.24756 -3.635816,-13.95539 -6.874144,-18.35435 -1.493054,-2.02817 -1.493054,-2.02817 -0.174191,-4.63522 2.245451,-4.43866 2.224572,-4.10351 2.237171,-35.90896 0.01323,-33.407114 0.08165,-32.922605 -4.903199,-34.725149 -1.537598,-0.556002 -1.518146,-0.615997 1.007778,-3.108378 3.847034,-3.795947 3.681881,-2.881988 3.497847,-19.357155 C 77.482661,33.583304 77.312063,32.525996 74.207277,28.998773 72.693145,27.278628 72.666288,27.746504 74.451373,24.746441 78.093863,18.624774 81.239332,10.444971 82.583045,3.6 c 0.784799,-3.99781827 1.35603,-4.6438693 1.714791,-1.9393948 0.790777,5.9611722 4.056406,15.1820538 7.677853,21.6793068 2.4735,4.437717 2.377727,3.89871 0.992998,5.58859 -3.05742,3.731178 -3.355175,5.796049 -3.363001,23.321776 -0.0066,14.675492 -0.148832,13.869288 3.028446,17.160378 2.52999,2.620614 2.535278,2.757362 0.165564,4.281693 C 88.905662,76.197208 89.12,74.236106 89.12,107.36 c 0,32.08212 -0.0254,31.64908 2.104747,35.88926 1.537862,3.06121 1.574704,2.54624 -0.39052,5.45857 -3.014033,4.46661 -5.241196,10.02821 -6.28229,15.68794 C 84.00602,167.36356 82.88,168.81885 82.88,166.55661 Z M 64.96,140.41598 C 24.600501,106.49614 22.547018,95.379483 50.667006,63.04 58.952477,53.511267 59.683197,47.35982 54.354197,32 c -1.983426,-5.716842 -2.074228,-6.081732 -1.511501,-6.073961 1.193411,0.01648 15.000934,18.692497 18.001307,24.34852 0.733858,1.3834 1.076019,0.795456 -8.040927,13.816959 -20.509794,29.29362 -21.866498,39.966952 -7.083385,55.725682 3.15064,3.35856 3.080027,3.6305 3.110133,-11.9772 0.02887,-14.966305 -0.288035,-17.022944 -2.889811,-18.754252 -1.704562,-1.134274 -1.21447,-1.494119 9.590644,-7.041825 7.758815,-3.983635 7.928348,-3.974701 5.832524,0.307358 -2.470029,5.046611 -2.337203,3.327069 -2.574473,33.328719 -0.116921,14.784 -0.234211,26.916 -0.260645,26.96 -0.220479,0.36699 -1.244943,-0.27158 -3.568063,-2.22402 z M 98.521591,142.64 c -0.02113,-0.044 -0.139346,-12.104 -0.262713,-26.8 -0.253559,-30.205148 -0.157538,-29.073839 -2.899046,-34.156417 -2.093161,-3.880584 -2.124377,-3.882343 6.157448,0.346976 10.51348,5.368965 11.47913,6.052717 9.69572,6.865293 -2.50459,1.14117 -2.56519,1.562312 -2.65338,18.440298 -0.0804,15.38385 -0.0804,15.38385 2.45263,12.78256 15.17626,-15.58536 13.82787,-26.547285 -6.93091,-56.346066 C 96.376553,52.712583 96,52.128521 96,51.237872 96,49.197995 113.03743,25.6 114.51019,25.6 c 0.27894,0 0.37702,0.208539 0.26336,0.56 -0.0996,0.308 -0.97184,2.864 -1.9383,5.68 -5.67388,16.532004 -4.93571,21.327016 5.07276,32.951827 25.58824,29.720673 23.79109,41.368033 -11.0382,71.538723 -6.950764,6.02107 -8.077737,6.87281 -8.348219,6.30945 z"
         id="path6" />
      <path
         style="fill:#767676;fill-opacity:1"
         d="m 82.88,166.55661 c 0,-4.24756 -3.635816,-13.95539 -6.874144,-18.35435 -1.493054,-2.02817 -1.493054,-2.02817 -0.174191,-4.63522 2.245451,-4.43866 2.224572,-4.10351 2.237171,-35.90896 0.01323,-33.407114 0.08165,-32.922605 -4.903199,-34.725149 -1.537598,-0.556002 -1.518146,-0.615997 1.007778,-3.108378 3.847034,-3.795947 3.681881,-2.881988 3.497847,-19.357155 C 77.482661,33.583304 77.312063,32.525996 74.207277,28.998773 72.693145,27.278628 72.666288,27.746504 74.451373,24.746441 78.093863,18.624774 81.239332,10.444971 82.583045,3.6 c 0.784799,-3.99781827 1.35603,-4.6438693 1.714791,-1.9393948 0.790777,5.9611722 4.056406,15.1820538 7.677853,21.6793068 2.4735,4.437717 2.377727,3.89871 0.992998,5.58859 -3.05742,3.731178 -3.355175,5.796049 -3.363001,23.321776 -0.0066,14.675492 -0.148832,13.869288 3.028446,17.160378 2.52999,2.620614 2.535278,2.757362 0.165564,4.281693 C 88.905662,76.197208 89.12,74.236106 89.12,107.36 c 0,32.08212 -0.0254,31.64908 2.104747,35.88926 1.537862,3.06121 1.574704,2.54624 -0.39052,5.45857 -3.014033,4.46661 -5.241196,10.02821 -6.28229,15.68794 C 84.00602,167.36356 82.88,168.81885 82.88,166.55661 Z M 64.96,140.41598 C 24.600501,106.49614 22.547018,95.379483 50.667006,63.04 58.952477,53.511267 59.683197,47.35982 54.354197,32 c -1.983426,-5.716842 -2.074228,-6.081732 -1.511501,-6.073961 1.193411,0.01648 15.000934,18.692497 18.001307,24.34852 0.733858,1.3834 1.076019,0.795456 -8.040927,13.816959 -20.509794,29.29362 -21.866498,39.966952 -7.083385,55.725682 3.15064,3.35856 3.080027,3.6305 3.110133,-11.9772 0.02887,-14.966305 -0.288035,-17.022944 -2.889811,-18.754252 -1.704562,-1.134274 -1.21447,-1.494119 9.590644,-7.041825 7.758815,-3.983635 7.928348,-3.974701 5.832524,0.307358 -2.470029,5.046611 -2.337203,3.327069 -2.574473,33.328719 -0.116921,14.784 -0.234211,26.916 -0.260645,26.96 -0.220479,0.36699 -1.244943,-0.27158 -3.568063,-2.22402 z M 98.521591,142.64 c -0.02113,-0.044 -0.139346,-12.104 -0.262713,-26.8 -0.253559,-30.205148 -0.157538,-29.073839 -2.899046,-34.156417 -2.093161,-3.880584 -2.124377,-3.882343 6.157448,0.346976 10.51348,5.368965 11.47913,6.052717 9.69572,6.865293 -2.50459,1.14117 -2.56519,1.562312 -2.65338,18.440298 -0.0804,15.38385 -0.0804,15.38385 2.45263,12.78256 15.17626,-15.58536 13.82787,-26.547285 -6.93091,-56.346066 C 96.376553,52.712583 96,52.128521 96,51.237872 96,49.197995 113.03743,25.6 114.51019,25.6 c 0.27894,0 0.37702,0.208539 0.26336,0.56 -0.0996,0.308 -0.97184,2.864 -1.9383,5.68 -5.67388,16.532004 -4.93571,21.327016 5.07276,32.951827 25.58824,29.720673 23.79109,41.368033 -11.0382,71.538723 -6.950764,6.02107 -8.077737,6.87281 -8.348219,6.30945 z"
         id="path5" />
      <path
         style="fill:#606060;fill-opacity:1"
         d="m 82.88,166.55661 c 0,-4.24756 -3.635816,-13.95539 -6.874144,-18.35435 -1.493054,-2.02817 -1.493054,-2.02817 -0.174191,-4.63522 2.245451,-4.43866 2.224572,-4.10351 2.237171,-35.90896 0.01323,-33.407114 0.08165,-32.922605 -4.903199,-34.725149 -1.537598,-0.556002 -1.518146,-0.615997 1.007778,-3.108378 3.847034,-3.795947 3.681881,-2.881988 3.497847,-19.357155 C 77.482661,33.583304 77.312063,32.525996 74.207277,28.998773 72.693145,27.278628 72.666288,27.746504 74.451373,24.746441 78.093863,18.624774 81.239332,10.444971 82.583045,3.6 c 0.784799,-3.99781827 1.35603,-4.6438693 1.714791,-1.9393948 0.790777,5.9611722 4.056406,15.1820538 7.677853,21.6793068 2.4735,4.437717 2.377727,3.89871 0.992998,5.58859 -3.05742,3.731178 -3.355175,5.796049 -3.363001,23.321776 -0.0066,14.675492 -0.148832,13.869288 3.028446,17.160378 2.52999,2.620614 2.535278,2.757362 0.165564,4.281693 C 88.905662,76.197208 89.12,74.236106 89.12,107.36 c 0,32.08212 -0.0254,31.64908 2.104747,35.88926 1.537862,3.06121 1.574704,2.54624 -0.39052,5.45857 -3.014033,4.46661 -5.241196,10.02821 -6.28229,15.68794 C 84.00602,167.36356 82.88,168.81885 82.88,166.55661 Z M 64.96,140.41598 C 24.600501,106.49614 22.547018,95.379483 50.667006,63.04 58.952477,53.511267 59.683197,47.35982 54.354197,32 c -1.983426,-5.716842 -2.074228,-6.081732 -1.511501,-6.073961 1.193411,0.01648 15.000934,18.692497 18.001307,24.34852 0.733858,1.3834 1.076019,0.795456 -8.040927,13.816959 -20.509794,29.29362 -21.866498,39.966952 -7.083385,55.725682 3.15064,3.35856 3.080027,3.6305 3.110133,-11.9772 0.02887,-14.966305 -0.288035,-17.022944 -2.889811,-18.754252 -1.704562,-1.134274 -1.21447,-1.494119 9.590644,-7.041825 7.758815,-3.983635 7.928348,-3.974701 5.832524,0.307358 -2.470029,5.046611 -2.337203,3.327069 -2.574473,33.328719 -0.116921,14.784 -0.234211,26.916 -0.260645,26.96 -0.220479,0.36699 -1.244943,-0.27158 -3.568063,-2.22402 z M 98.521591,142.64 c -0.02113,-0.044 -0.139346,-12.104 -0.262713,-26.8 -0.253559,-30.205148 -0.157538,-29.073839 -2.899046,-34.156417 -2.093161,-3.880584 -2.124377,-3.882343 6.157448,0.346976 10.51348,5.368965 11.47913,6.052717 9.69572,6.865293 -2.50459,1.14117 -2.56519,1.562312 -2.65338,18.440298 -0.0804,15.38385 -0.0804,15.38385 2.45263,12.78256 15.17626,-15.58536 13.82787,-26.547285 -6.93091,-56.346066 C 96.376553,52.712583 96,52.128521 96,51.237872 96,49.197995 113.03743,25.6 114.51019,25.6 c 0.27894,0 0.37702,0.208539 0.26336,0.56 -0.0996,0.308 -0.97184,2.864 -1.9383,5.68 -5.67388,16.532004 -4.93571,21.327016 5.07276,32.951827 25.58824,29.720673 23.79109,41.368033 -11.0382,71.538723 -6.950764,6.02107 -8.077737,6.87281 -8.348219,6.30945 z"
         id="path4" />
      <path
         style="fill:#494949;fill-opacity:1"
         d="m 82.88,166.55661 c 0,-4.24756 -3.635816,-13.95539 -6.874144,-18.35435 -1.493054,-2.02817 -1.493054,-2.02817 -0.174191,-4.63522 2.245451,-4.43866 2.224572,-4.10351 2.237171,-35.90896 0.01323,-33.407114 0.08165,-32.922605 -4.903199,-34.725149 -1.537598,-0.556002 -1.518146,-0.615997 1.007778,-3.108378 3.847034,-3.795947 3.681881,-2.881988 3.497847,-19.357155 C 77.482661,33.583304 77.312063,32.525996 74.207277,28.998773 72.693145,27.278628 72.666288,27.746504 74.451373,24.746441 78.093863,18.624774 81.239332,10.444971 82.583045,3.6 c 0.784799,-3.99781827 1.35603,-4.6438693 1.714791,-1.9393948 0.790777,5.9611722 4.056406,15.1820538 7.677853,21.6793068 2.4735,4.437717 2.377727,3.89871 0.992998,5.58859 -3.05742,3.731178 -3.355175,5.796049 -3.363001,23.321776 -0.0066,14.675492 -0.148832,13.869288 3.028446,17.160378 2.52999,2.620614 2.535278,2.757362 0.165564,4.281693 C 88.905662,76.197208 89.12,74.236106 89.12,107.36 c 0,32.08212 -0.0254,31.64908 2.104747,35.88926 1.537862,3.06121 1.574704,2.54624 -0.39052,5.45857 -3.014033,4.46661 -5.241196,10.02821 -6.28229,15.68794 C 84.00602,167.36356 82.88,168.81885 82.88,166.55661 Z M 64.96,140.41598 C 24.600501,106.49614 22.547018,95.379483 50.667006,63.04 58.952477,53.511267 59.683197,47.35982 54.354197,32 c -1.983426,-5.716842 -2.074228,-6.081732 -1.511501,-6.073961 1.193411,0.01648 15.000934,18.692497 18.001307,24.34852 0.733858,1.3834 1.076019,0.795456 -8.040927,13.816959 -20.509794,29.29362 -21.866498,39.966952 -7.083385,55.725682 3.15064,3.35856 3.080027,3.6305 3.110133,-11.9772 0.02887,-14.966305 -0.288035,-17.022944 -2.889811,-18.754252 -1.704562,-1.134274 -1.21447,-1.494119 9.590644,-7.041825 7.758815,-3.983635 7.928348,-3.974701 5.832524,0.307358 -2.470029,5.046611 -2.337203,3.327069 -2.574473,33.328719 -0.116921,14.784 -0.234211,26.916 -0.260645,26.96 -0.220479,0.36699 -1.244943,-0.27158 -3.568063,-2.22402 z M 98.521591,142.64 c -0.02113,-0.044 -0.139346,-12.104 -0.262713,-26.8 -0.253559,-30.205148 -0.157538,-29.073839 -2.899046,-34.156417 -2.093161,-3.880584 -2.124377,-3.882343 6.157448,0.346976 10.51348,5.368965 11.47913,6.052717 9.69572,6.865293 -2.50459,1.14117 -2.56519,1.562312 -2.65338,18.440298 -0.0804,15.38385 -0.0804,15.38385 2.45263,12.78256 15.17626,-15.58536 13.82787,-26.547285 -6.93091,-56.346066 C 96.376553,52.712583 96,52.128521 96,51.237872 96,49.197995 113.03743,25.6 114.51019,25.6 c 0.27894,0 0.37702,0.208539 0.26336,0.56 -0.0996,0.308 -0.97184,2.864 -1.9383,5.68 -5.67388,16.532004 -4.93571,21.327016 5.07276,32.951827 25.58824,29.720673 23.79109,41.368033 -11.0382,71.538723 -6.950764,6.02107 -8.077737,6.87281 -8.348219,6.30945 z"
         id="path3" />
      <path
         style="fill:#333333;fill-opacity:1"
         d="m 82.88,166.55661 c 0,-4.24756 -3.635816,-13.95539 -6.874144,-18.35435 -1.493054,-2.02817 -1.493054,-2.02817 -0.174191,-4.63522 2.245451,-4.43866 2.224572,-4.10351 2.237171,-35.90896 0.01323,-33.407114 0.08165,-32.922605 -4.903199,-34.725149 -1.537598,-0.556002 -1.518146,-0.615997 1.007778,-3.108378 3.847034,-3.795947 3.681881,-2.881988 3.497847,-19.357155 C 77.482661,33.583304 77.312063,32.525996 74.207277,28.998773 72.693145,27.278628 72.666288,27.746504 74.451373,24.746441 78.093863,18.624774 81.239332,10.444971 82.583045,3.6 c 0.784799,-3.99781827 1.35603,-4.6438693 1.714791,-1.9393948 0.790777,5.9611722 4.056406,15.1820538 7.677853,21.6793068 2.4735,4.437717 2.377727,3.89871 0.992998,5.58859 -3.05742,3.731178 -3.355175,5.796049 -3.363001,23.321776 -0.0066,14.675492 -0.148832,13.869288 3.028446,17.160378 2.52999,2.620614 2.535278,2.757362 0.165564,4.281693 C 88.905662,76.197208 89.12,74.236106 89.12,107.36 c 0,32.08212 -0.0254,31.64908 2.104747,35.88926 1.537862,3.06121 1.574704,2.54624 -0.39052,5.45857 -3.014033,4.46661 -5.241196,10.02821 -6.28229,15.68794 C 84.00602,167.36356 82.88,168.81885 82.88,166.55661 Z M 64.96,140.41598 C 24.600501,106.49614 22.547018,95.379483 50.667006,63.04 58.952477,53.511267 59.683197,47.35982 54.354197,32 c -1.983426,-5.716842 -2.074228,-6.081732 -1.511501,-6.073961 1.193411,0.01648 15.000934,18.692497 18.001307,24.34852 0.733858,1.3834 1.076019,0.795456 -8.040927,13.816959 -20.509794,29.29362 -21.866498,39.966952 -7.083385,55.725682 3.15064,3.35856 3.080027,3.6305 3.110133,-11.9772 0.02887,-14.966305 -0.288035,-17.022944 -2.889811,-18.754252 -1.704562,-1.134274 -1.21447,-1.494119 9.590644,-7.041825 7.758815,-3.983635 7.928348,-3.974701 5.832524,0.307358 -2.470029,5.046611 -2.337203,3.327069 -2.574473,33.328719 -0.116921,14.784 -0.234211,26.916 -0.260645,26.96 -0.220479,0.36699 -1.244943,-0.27158 -3.568063,-2.22402 z M 98.521591,142.64 c -0.02113,-0.044 -0.139346,-12.104 -0.262713,-26.8 -0.253559,-30.205148 -0.157538,-29.073839 -2.899046,-34.156417 -2.093161,-3.880584 -2.124377,-3.882343 6.157448,0.346976 10.51348,5.368965 11.47913,6.052717 9.69572,6.865293 -2.50459,1.14117 -2.56519,1.562312 -2.65338,18.440298 -0.0804,15.38385 -0.0804,15.38385 2.45263,12.78256 15.17626,-15.58536 13.82787,-26.547285 -6.93091,-56.346066 C 96.376553,52.712583 96,52.128521 96,51.237872 96,49.197995 113.03743,25.6 114.51019,25.6 c 0.27894,0 0.37702,0.208539 0.26336,0.56 -0.0996,0.308 -0.97184,2.864 -1.9383,5.68 -5.67388,16.532004 -4.93571,21.327016 5.07276,32.951827 25.58824,29.720673 23.79109,41.368033 -11.0382,71.538723 -6.950764,6.02107 -8.077737,6.87281 -8.348219,6.30945 z"
         id="path2" />
    </g>
  </g>
</svg>
